<svg id="_001-koala" data-name="001-koala" xmlns="http://www.w3.org/2000/svg" width="54.301" height="40.962" viewBox="0 0 54.301 40.962">
  <g id="Group_3781" data-name="Group 3781" transform="translate(0 0)">
    <g id="Group_3779" data-name="Group 3779" transform="translate(0 0)">
      <path id="Path_3697" data-name="Path 3697" d="M8.991,90.67A5.18,5.18,0,0,1,4.336,87.8L1.017,81.188a9.606,9.606,0,0,1,.107-8.812L4.712,65.64a5.2,5.2,0,0,1,4.6-2.757H13a5.213,5.213,0,0,1,4.753,3.075L19.7,70.3a5.188,5.188,0,0,1-.015,4.274L13.73,87.627A5.219,5.219,0,0,1,8.991,90.67Z" transform="translate(0 -62.883)" fill="#8d9ca8"/>
    </g>
    <g id="Group_3780" data-name="Group 3780" transform="translate(34.145)">
      <path id="Path_3698" data-name="Path 3698" d="M333.12,90.67a5.219,5.219,0,0,1-4.738-3.042l-5.958-13.053a5.187,5.187,0,0,1-.015-4.274l1.946-4.343a5.214,5.214,0,0,1,4.753-3.075H332.8a5.2,5.2,0,0,1,4.6,2.757l3.588,6.736a9.606,9.606,0,0,1,.107,8.812L337.776,87.8a5.18,5.18,0,0,1-4.655,2.869Z" transform="translate(-321.956 -62.883)" fill="#697c86"/>
    </g>
  </g>
  <g id="Group_3784" data-name="Group 3784" transform="translate(8.591 0.025)">
    <g id="Group_3782" data-name="Group 3782">
      <path id="Path_3699" data-name="Path 3699" d="M102.845,104.054H96.2a11.848,11.848,0,0,1-10.237-5.921l-3.241-5.626A12.925,12.925,0,0,1,81,86.064V79.555A12.838,12.838,0,0,1,83.368,72.1l4.223-5.971a7.145,7.145,0,0,1,5.825-3.017H105.7a7.145,7.145,0,0,1,5.825,3.016l4.223,5.971a12.838,12.838,0,0,1,2.368,7.452v6.469a12.92,12.92,0,0,1-1.766,6.517l-3.311,5.66A11.858,11.858,0,0,1,102.845,104.054Z" transform="translate(-81 -63.116)" fill="#9facba"/>
    </g>
    <g id="Group_3783" data-name="Group 3783" transform="translate(18.56 0)">
      <path id="Path_3700" data-name="Path 3700" d="M272.192,72.1l-4.223-5.971a7.146,7.146,0,0,0-5.825-3.016H256v40.938h3.285a11.859,11.859,0,0,0,10.2-5.853l3.311-5.66a12.921,12.921,0,0,0,1.766-6.517V79.555a12.838,12.838,0,0,0-2.368-7.452Z" transform="translate(-256 -63.116)" fill="#8d9ca8"/>
    </g>
  </g>
  <g id="Group_3785" data-name="Group 3785" transform="translate(19.911 13.716)">
    <path id="Path_3701" data-name="Path 3701" d="M196.087,211.246H193.87a6.138,6.138,0,0,1-6.131-6.131v-6.771a6.138,6.138,0,0,1,6.131-6.131h2.216a6.138,6.138,0,0,1,6.131,6.131v6.771A6.138,6.138,0,0,1,196.087,211.246Z" transform="translate(-187.739 -192.213)" fill="#5a5a5a"/>
  </g>
  <path id="Path_3702" data-name="Path 3702" d="M138.591,195.493A1.591,1.591,0,0,0,137,197.084v3.182a1.591,1.591,0,1,0,3.182,0v-3.182A1.591,1.591,0,0,0,138.591,195.493Z" transform="translate(-122.47 -181.429)" fill="#444"/>
  <path id="Path_3703" data-name="Path 3703" d="M346.591,195.493A1.591,1.591,0,0,0,345,197.084v3.182a1.591,1.591,0,1,0,3.182,0v-3.182A1.591,1.591,0,0,0,346.591,195.493Z" transform="translate(-308.411 -181.429)" fill="#292929"/>
  <g id="Group_3786" data-name="Group 3786" transform="translate(27.15 13.716)">
    <path id="Path_3704" data-name="Path 3704" d="M257.108,192.213H256v19.033h1.108a6.138,6.138,0,0,0,6.131-6.131v-6.771A6.138,6.138,0,0,0,257.108,192.213Z" transform="translate(-256 -192.213)" fill="#292929"/>
  </g>
</svg>
