<svg id="_005-cocker-spaniel" data-name="005-cocker-spaniel" xmlns="http://www.w3.org/2000/svg" width="43.5" height="43.5" viewBox="0 0 43.5 43.5">
  <path id="Path_3739" data-name="Path 3739" d="M14.977,50.544C14.54,50.7,4.259,54.468,3.267,62.4c-.11.876-.221,1.907-.339,3A68.875,68.875,0,0,1,1.8,73.33c-.251.949-.505,1.714-.75,2.453A15.752,15.752,0,0,0,0,81.409a8.34,8.34,0,1,0,16.681,0Z" transform="translate(0 -46.25)" fill="#c97840"/>
  <path id="Path_3740" data-name="Path 3740" d="M317.371,50.544c.437.157,10.718,3.924,11.71,11.86.11.876.221,1.907.339,3a68.858,68.858,0,0,0,1.129,7.928c.252.949.505,1.714.75,2.453a15.754,15.754,0,0,1,1.048,5.626,8.34,8.34,0,1,1-16.681,0Z" transform="translate(-288.848 -46.25)" fill="#ae632c"/>
  <g id="Group_3816" data-name="Group 3816" transform="translate(7.533)">
    <path id="Path_3741" data-name="Path 3741" d="M260.452,14.2a14.1,14.1,0,0,0-4.161-9.957A14.074,14.074,0,0,0,246.239,0l-.906,19.031.906,16.812a5.6,5.6,0,0,0,4.014,1.682h.029a5.815,5.815,0,0,0,5.767-5.348L256.2,29.8l2.722-6.634.009-.023a23.085,23.085,0,0,0,1.523-8.951Z" transform="translate(-232.023)" fill="#ffa73c"/>
    <path id="Path_3742" data-name="Path 3742" d="M102.886,0A14.074,14.074,0,0,0,92.834,4.24,14.1,14.1,0,0,0,88.674,14.2,23.088,23.088,0,0,0,90.2,23.147L92.927,29.8l.147,2.348,0,.023a5.815,5.815,0,0,0,5.767,5.348h.029a5.6,5.6,0,0,0,4.014-1.682V0Z" transform="translate(-88.669)" fill="#fdc661"/>
  </g>
  <path id="Path_3743" data-name="Path 3743" d="M158.474,195.665h2.549v2.549h-2.549Z" transform="translate(-145.01 -179.041)" fill="#351a0a"/>
  <g id="Group_3817" data-name="Group 3817" transform="translate(27.487 16.624)">
    <path id="Path_3744" data-name="Path 3744" d="M323.526,195.665h2.549v2.549h-2.549Z" transform="translate(-323.526 -195.665)" fill="#281408"/>
  </g>
  <g id="Group_3818" data-name="Group 3818" transform="translate(17.336 25.55)">
    <path id="Path_3745" data-name="Path 3745" d="M244.978,300.722h-1.032l-1.119,3.028,1.119,4.953,2.772-1.7a3.382,3.382,0,0,0-1.74-6.281Z" transform="translate(-239.533 -300.722)" fill="#281408"/>
    <path id="Path_3746" data-name="Path 3746" d="M207.434,300.722a3.382,3.382,0,0,0-1.74,6.281l2.772,1.7v-7.982h-1.032Z" transform="translate(-204.052 -300.722)" fill="#412816"/>
  </g>
</svg>
