<svg id="_004-bear" data-name="004-bear" xmlns="http://www.w3.org/2000/svg" width="44.3" height="44.292" viewBox="0 0 44.3 44.292">
  <g id="Group_3804" data-name="Group 3804" transform="translate(0.008 0)">
    <g id="Group_3803" data-name="Group 3803">
      <path id="Path_3725" data-name="Path 3725" d="M1.606,10.819c-2.3-2.3-1.954-5.473.918-8.346S8.57-.744,10.87,1.555c2.527,2.527,3.492,7.561.948,10.15s-7.644,1.682-10.212-.886Z" transform="translate(-0.097 -0.046)" fill="#704c55"/>
    </g>
  </g>
  <g id="Group_3806" data-name="Group 3806" transform="translate(31.095 0)">
    <g id="Group_3805" data-name="Group 3805">
      <path id="Path_3726" data-name="Path 3726" d="M360.931,11.782c-2.612-2.669-1.646-7.7.876-10.222,2.3-2.3,5.473-1.954,8.346.918s3.215,6.047.918,8.346C368.544,13.35,363.518,14.307,360.931,11.782Z" transform="translate(-359.383 -0.051)" fill="#5a344b"/>
    </g>
  </g>
  <g id="Group_3807" data-name="Group 3807" transform="translate(2.603 2.601)">
    <path id="Path_3727" data-name="Path 3727" d="M31.753,31.771c-2.752,2.754-1.371,4.222-.918,4.676,1.6,1.6,5.1,2.352,6.524.9,1.4-1.425.662-4.905-.93-6.5C34.963,29.388,33.225,30.3,31.753,31.771Z" transform="translate(-30.086 -30.11)" fill="#fc9"/>
  </g>
  <g id="Group_3808" data-name="Group 3808" transform="translate(33.684 2.601)">
    <path id="Path_3728" data-name="Path 3728" d="M390.979,30.853c-1.588,1.589-2.327,5.07-.934,6.495,1.461,1.427,4.938.687,6.528-.9.454-.454,1.834-1.922-.918-4.676C394.183,30.3,392.445,29.388,390.979,30.853Z" transform="translate(-389.309 -30.11)" fill="#f89580"/>
  </g>
  <path id="Path_3729" data-name="Path 3729" d="M22.15,29.954A22.236,22.236,0,0,0,0,52.1C0,58.21,3,63.5,8.73,67.817a1.3,1.3,0,0,0,2.053-1.292l-.1-.517a41.485,41.485,0,0,0,11.1,5.595,1.31,1.31,0,0,0,.748,0,41.488,41.488,0,0,0,11.1-5.595l-.1.517a1.3,1.3,0,0,0,2.053,1.292C41.3,63.5,44.3,58.21,44.3,52.1a22.236,22.236,0,0,0-22.15-22.15Z" transform="translate(0 -27.366)" fill="#9b786f"/>
  <path id="Path_3730" data-name="Path 3730" d="M267.47,66.009l-.1.517a1.3,1.3,0,0,0,2.053,1.292c5.735-4.321,8.73-9.607,8.73-15.714A22.236,22.236,0,0,0,256,29.954v41.7a1.3,1.3,0,0,0,.374-.055A41.483,41.483,0,0,0,267.47,66.009Z" transform="translate(-233.85 -27.366)" fill="#704c55"/>
  <g id="Group_3809" data-name="Group 3809" transform="translate(26.467 24.911)">
    <path id="Path_3731" data-name="Path 3731" d="M314.556,294.271a10.123,10.123,0,0,1-8.411-4.251,1.3,1.3,0,0,1,2.094-1.534,7.505,7.505,0,0,0,6.065,3.189,1.41,1.41,0,0,1,1.423,1.3A1.2,1.2,0,0,1,314.556,294.271Z" transform="translate(-305.895 -287.955)" fill="#f89580"/>
  </g>
  <g id="Group_3810" data-name="Group 3810" transform="translate(8 24.911)">
    <path id="Path_3732" data-name="Path 3732" d="M93.888,294.272a1.41,1.41,0,0,1-1.423-1.3,1.2,1.2,0,0,1,1.171-1.3,7.449,7.449,0,0,0,6.317-3.189,1.3,1.3,0,1,1,2.094,1.534A10.206,10.206,0,0,1,93.888,294.272Z" transform="translate(-92.465 -287.956)" fill="#fc9"/>
  </g>
  <path id="Path_3733" data-name="Path 3733" d="M167.464,108.15A6.393,6.393,0,0,0,158.9,109.9a6.393,6.393,0,0,0-8.559-1.751,1.3,1.3,0,1,0,1.321,2.236,3.922,3.922,0,0,1,3.986-.038,3.836,3.836,0,0,1,1.954,3.37v2.48l1.284,1.3.014-.013,1.3-1.284v-2.48a3.836,3.836,0,0,1,1.954-3.37,3.922,3.922,0,0,1,3.986.038,1.3,1.3,0,0,0,1.321-2.236Z" transform="translate(-136.755 -97.949)" fill="#fc9"/>
  <path id="Path_3734" data-name="Path 3734" d="M257.3,113.716a3.836,3.836,0,0,1,1.954-3.37,3.922,3.922,0,0,1,3.986.038,1.3,1.3,0,0,0,1.321-2.236A6.393,6.393,0,0,0,256,109.9v7.582l1.3-1.284Z" transform="translate(-233.85 -97.948)" fill="#f89580"/>
  <path id="Path_3735" data-name="Path 3735" d="M164.207,215.042c-1.142-1.355-2.868-3.4-2.868-4.088h-2.6c0,.686-1.726,2.733-2.868,4.087-2.212,2.625-4.72,5.6-4.9,8.38a5.2,5.2,0,0,0,5.172,5.7h7.787a5.2,5.2,0,0,0,5.176-5.665C168.927,220.642,166.419,217.666,164.207,215.042Z" transform="translate(-137.891 -192.706)" fill="#ffe5b3"/>
  <path id="Path_3736" data-name="Path 3736" d="M263.736,227.424a5.207,5.207,0,0,0,1.333-3.966c-.184-2.816-2.692-5.792-4.9-8.417-1.142-1.355-2.868-3.4-2.868-4.088H256v18.17h3.894A5.21,5.21,0,0,0,263.736,227.424Z" transform="translate(-233.85 -192.706)" fill="#fc9"/>
  <g id="Group_3812" data-name="Group 3812" transform="translate(13.065 15.653)">
    <g id="Group_3811" data-name="Group 3811">
      <ellipse id="Ellipse_32" data-name="Ellipse 32" cx="1.298" cy="1.298" rx="1.298" ry="1.298" fill="#704c55"/>
    </g>
  </g>
  <g id="Group_3814" data-name="Group 3814" transform="translate(28.639 15.653)">
    <g id="Group_3813" data-name="Group 3813">
      <ellipse id="Ellipse_33" data-name="Ellipse 33" cx="1.298" cy="1.298" rx="1.298" ry="1.298" fill="#5a344b"/>
    </g>
  </g>
  <g id="Group_3815" data-name="Group 3815" transform="translate(18.256 26.128)">
    <path id="Path_3737" data-name="Path 3737" d="M215.227,302.028h-.667c-2.074-.041-3.56.418-3.56,2.5a3.894,3.894,0,0,0,7.787,0C218.787,302.437,217.309,302.008,215.227,302.028Z" transform="translate(-211 -302.026)" fill="#704c55"/>
    <path id="Path_3738" data-name="Path 3738" d="M259.894,304.547c0-2.092-1.478-2.521-3.56-2.5H256v6.394A3.9,3.9,0,0,0,259.894,304.547Z" transform="translate(-252.106 -302.044)" fill="#5a344b"/>
  </g>
</svg>
