<svg xmlns="http://www.w3.org/2000/svg" width="343.437" height="241.937" viewBox="0 0 343.437 241.937">
	<g id="Group_3933" data-name="Group 3933" transform="translate(-511.133 -251.331)">
		<g id="Group_2" data-name="Group 2" transform="translate(445 77)">
			<path id="Path_1" data-name="Path 1" d="M358.466,229.515a55.184,55.184,0,1,1-55.184-55.184A55.184,55.184,0,0,1,358.466,229.515Z" fill="#6ab0a0" />
			<g id="Group_1" data-name="Group 1">
				<path id="Path_2" data-name="Path 2" d="M256.267,258.418q.675,1.1,1.4,2.157c10.029-9.39,46.532-45.337,61.262-83.991q-1.217-.358-2.454-.662c-.177.462-.355.925-.538,1.387l.6-.172.709,2.429q-1.272.371-2.536.718c-1.581,3.7-3.348,7.366-5.26,10.978.24-.1.367-.16.381-.168l1.124,2.268a25.941,25.941,0,0,1-3.336,1.269c-2.36,4.223-4.9,8.358-7.548,12.37.344-.064.536-.1.555-.107l.522,2.476c-.045.01-1.133.233-3.02.525-3.446,5.05-7.036,9.885-10.619,14.425.589.313.926.487.959.5l-1.154,2.251c-.15-.076-.643-.331-1.412-.738-2.508,3.121-5,6.089-7.427,8.884.309.168.618.338.923.5l-1.187,2.233c-.477-.254-.959-.517-1.443-.782-2.64,2.994-5.18,5.765-7.551,8.281.5.208.769.308.788.315l-.852,2.382c-.118-.042-.742-.27-1.8-.735C262.634,252.331,258.734,256.1,256.267,258.418Z" fill="#98d5cc" />
				<path id="Path_3" data-name="Path 3" d="M290.381,247.187c13.507-14.559,31.1-37.21,41.36-64.958q-1.1-.662-2.224-1.274c-16.29,44.46-52.1,76.606-65.414,87.42q.9.909,1.846,1.776A242.5,242.5,0,0,0,290.381,247.187Z" fill="#98d5cc" />
				<path id="Path_4" data-name="Path 4" d="M321.571,229.377c0,.022.018.172.043.432q1.507-2.13,3-4.357c-.658-.633-1.025-1.022-1.106-1.111l1.863-1.713c.016.018.236.254.667.67q1.677-2.569,3.322-5.266c-.685-.492-1.071-.776-1.1-.8l1.506-2.032c.026.018.345.253.9.654q2.5-4.208,4.873-8.706c-.737-.694-1.154-1.127-1.237-1.214l1.838-1.739c.015.015.223.232.617.61,2.21-4.33,4.314-8.853,6.271-13.563q-.947-.982-1.939-1.919c-12.1,29.562-30.107,51.7-43.686,65.506a203.605,203.605,0,0,1-24.1,21.025q1.141.741,2.323,1.426a205.544,205.544,0,0,0,20.9-18c.006-1.006.011-2.022.009-3.053l2.53,0c0,.174,0,.348,0,.523q.043-.042.084-.084c3.192-3.243,6.627-6.944,10.17-11.085q-.094-1.533-.2-3.1l2.523-.175c.012.164.022.322.034.485,2.538-3.068,5.117-6.352,7.69-9.857-.183-2.036-.311-3.212-.316-3.276Z" fill="#98d5cc" />
				<path id="Path_5" data-name="Path 5" d="M288.463,224.824c-.033-.017-.37-.191-.959-.5a272.356,272.356,0,0,1-23.584-14.153c-1.48-.227-2.968-.485-4.455-.8l.421-2.008c-1.782-1.273-3.542-2.583-5.251-3.917q-.615,1.144-1.177,2.321c12.619,9.809,27.75,18.086,32.439,20.571.769.407,1.262.662,1.412.738Z" fill="#98d5cc" />
				<path id="Path_6" data-name="Path 6" d="M279.393,235.722c-.3-.163-.614-.333-.923-.5-9.752-5.3-21.017-13.2-28.775-18.923q-.329,1.339-.592,2.7c7.643,5.6,18.282,13.019,27.66,18.172.484.265.966.528,1.443.782Z" fill="#98d5cc" />
				<path id="Path_7" data-name="Path 7" d="M270,245.769c-.019-.007-.291-.107-.788-.315-2.406-1.006-10.153-4.57-21.016-12.68q.1,1.71.3,3.391a104.743,104.743,0,0,0,18.849,11.251c1.06.465,1.684.693,1.8.735Z" fill="#98d5cc" />
				<path id="Path_8" data-name="Path 8" d="M316.532,177.137l-.6.172a205.8,205.8,0,0,1-45,7.5q-1.766,1.278-3.422,2.69a209.957,209.957,0,0,0,47.193-7.213q1.265-.35,2.536-.718Z" fill="#98d5cc" />
				<path id="Path_9" data-name="Path 9" d="M309.826,191.094c-.014.008-.141.068-.381.168-2.433,1.014-16.82,6.283-50.374,5.221q-.909,1.218-1.753,2.489,5.763.222,10.82.216c21.972,0,34.127-2.838,39.476-4.557a25.941,25.941,0,0,0,3.336-1.269Z" fill="#98d5cc" />
				<path id="Path_10" data-name="Path 10" d="M263.92,210.167a103.613,103.613,0,0,0,15.589,1.136,124.652,124.652,0,0,0,18.614-1.408c1.887-.292,2.975-.515,3.02-.525l-.522-2.476c-.019,0-.211.043-.555.107-3.389.636-21.776,3.724-40.083-.107l-.1.468-.421,2.008C260.952,209.682,262.44,209.94,263.92,210.167Z" fill="#98d5cc" />
				<path id="Path_11" data-name="Path 11" d="M320.962,267.136c0,4.875-.117,9.883-.4,14.8q1.308-.431,2.585-.923c.238-4.484.341-9.028.347-13.463-.837.613-1.373.988-1.494,1.072Z" fill="#98d5cc" />
				<path id="Path_12" data-name="Path 12" d="M323.083,250.286c-.306.235-.494.373-.539.407l-1.49-2.045c.023-.016.715-.526,1.872-1.49-.486-9.006-1.136-15.641-1.312-17.349-.025-.26-.042-.41-.043-.432l-2.515.276c.005.064.133,1.24.316,3.276.533,5.877,1.551,18.947,1.59,33.326.475-.341,1.351-.98,2.515-1.864C323.437,259.417,323.286,254.634,323.083,250.286Z" fill="#98d5cc" />
				<path id="Path_13" data-name="Path 13" d="M309.125,242.476q.109,1.572.2,3.1a352.64,352.64,0,0,1,.4,38.742q1.283-.15,2.548-.357a360.554,360.554,0,0,0-.593-41.18c-.012-.163-.022-.321-.034-.485Z" fill="#98d5cc" />
				<path id="Path_14" data-name="Path 14" d="M296.544,256.23c0,1.031,0,2.047-.009,3.053-.067,10.331-.527,19.247-.9,24.887q1.248.172,2.516.29c.4-6.13.919-16.172.919-27.71,0-.175,0-.349,0-.523Z" fill="#98d5cc" />
				<path id="Path_15" data-name="Path 15" d="M336.148,204.2l-1.838,1.739c.083.087.5.52,1.237,1.214A100.372,100.372,0,0,0,358.024,222.5c-.133-1.053-.3-2.1-.493-3.13a96.836,96.836,0,0,1-20.766-14.561C336.371,204.431,336.163,204.214,336.148,204.2Z" fill="#98d5cc" />
				<path id="Path_16" data-name="Path 16" d="M328.265,217.236c.027.02.413.3,1.1.8a252.386,252.386,0,0,0,28.755,17.677q.15-1.353.236-2.726a250.347,250.347,0,0,1-27.68-17.125c-.558-.4-.877-.636-.9-.654Z" fill="#98d5cc" />
				<path id="Path_17" data-name="Path 17" d="M325.374,222.628l-1.863,1.713c.081.089.448.478,1.106,1.111a86.028,86.028,0,0,0,10.983,8.669c.283-.354.565-.712.848-1.078l2,1.547q-.367.479-.737.942c2.619,1.709,5.637,3.542,9.072,5.447.232-.372.456-.745.67-1.116l2.195,1.259c-.2.356-.422.713-.64,1.069q3.276,1.752,7.027,3.559.381-1.233.7-2.487c-18.725-9.076-28.224-17.569-30.7-19.965C325.61,222.882,325.39,222.646,325.374,222.628Z" fill="#98d5cc" />
				<path id="Path_18" data-name="Path 18" d="M337.712,235.532q.369-.463.737-.942l-2-1.547c-.283.366-.565.724-.848,1.078a91.7,91.7,0,0,1-12.674,13.037c-1.157.964-1.849,1.474-1.872,1.49l1.49,2.045c.045-.034.233-.172.539-.407A89.845,89.845,0,0,0,337.712,235.532Z" fill="#98d5cc" />
				<path id="Path_19" data-name="Path 19" d="M349.009,242.191c.218-.356.435-.713.64-1.069l-2.195-1.259c-.214.371-.438.744-.67,1.116-5.987,9.629-17.817,19.244-23.307,23.412-1.164.884-2.04,1.523-2.515,1.864-.245.176-.4.281-.411.292l.411.589L322,268.623c.121-.084.657-.459,1.494-1.072C328.108,264.167,342.118,253.371,349.009,242.191Z" fill="#98d5cc" />
			</g>
		</g>
		<g id="Group_5" data-name="Group 5" transform="translate(445 77)">
			<path id="Path_20" data-name="Path 20" d="M171.162,415.338s-26.679,3.859-35.355-4.141c-6.935-6.395-14.852-13.345,42.859-14.859s69.474-12.6,53.029-15.5S97,393.646,85,377.146c-8-11,129.472-6.727,158.624-5.227S290.727,405.338,171.162,415.338Z" fill="#ffde65" />
			<path id="Path_3839" data-name="Path 3839" d="M150.439,0c83.085,0,150.439,8.5,150.439,18.977S233.524,37.953,150.439,37.953,0,29.457,0,18.977,67.354,0,150.439,0Z" transform="translate(108.692 324.746)" fill="#ffde65" />
			<path id="Path_21" data-name="Path 21" d="M368.6,316.289s35.065,18.118,40.974,26.285c0,0-51.2,6.045-59.741,5.822C349.829,348.4,356.726,323.186,368.6,316.289Z" fill="#6b6b6b" />
			<path id="Path_22" data-name="Path 22" d="M371.98,324.746s19.164,9.273,28.552,18.978c0,0-43.68,6.362-51.157,4.678C349.375,348.4,370.256,329.983,371.98,324.746Z" fill="#df9fa1" />
			<path id="Path_23" data-name="Path 23" d="M372.035,332.389s9.911,2.067,11.252,5.133-16.863,2.107-16.863,2.107,8.049,2.247,6.707,4.1-11.5,0-11.5,0,8.049-.261,8.049-.837-6.246-4.42-6.246-4.42,14.3.4,14.2-.945S372.035,332.389,372.035,332.389Z" fill="#f5efdb" />
			<path id="Path_24" data-name="Path 24" d="M370.088,264.824s.639-42.2-5.023-52.137c0,0-27.681,43.493-31.188,51.284C333.877,263.971,358.722,272.521,370.088,264.824Z" fill="#6b6b6b" />
			<path id="Path_25" data-name="Path 25" d="M363.819,257.6s1.037-25.152-3.335-37.68c0,0-20.28,29.9-22.447,36.387C338.037,256.311,359.073,256.55,363.819,257.6Z" fill="#df9fa1" />
			<path id="Path_26" data-name="Path 26" d="M358.183,248.366s3.329-9.561,1.39-12.288-10.487,13.373-10.487,13.373,2.217-8.057-.059-7.858-5.917,9.856-5.917,9.856,4.366-6.765,4.859-6.469.576,7.631.576,7.631,7.018-12.462,8.119-11.689S358.183,248.366,358.183,248.366Z" fill="#f5efdb" />
			<path id="Path_27" data-name="Path 27" d="M118.448,295.87s-44.961,3.249-31.064,46.1,173.937-1.452,179.149,31.328-97.623,44.3-118,34.554,3.416-15.949,38.766-15.949,58.48-5.628,53.587-13.061c-2.954-4.486-28.381-2.487-28.381-2.487s-111.093,13.632-133.453-7.486c-24.535-23.172-15.788-87.692,40.763-92.617Z" fill="#6b6b6b" />
			<path id="Path_28" data-name="Path 28" d="M200.542,352.893s168.268,22.574,176.44-32.347c8.451-56.783-18.143-73.979-51.358-73.624s-79.323-1.172-101.59-34.209c-27.57-40.906-102.532-9.6-112.259,38.127C88.933,362.9,200.542,352.893,200.542,352.893Z" fill="#f5efdb" />
			<path id="Path_29" data-name="Path 29" d="M294.8,245.949s12.65,58.624,82.83,41.813C377.635,287.762,378.564,231.885,294.8,245.949Z" fill="#6b6b6b" />
			<path id="Path_30" data-name="Path 30" d="M378.537,298.958s-61.435-14.259-68.1,56.707C310.441,355.665,390.189,355.737,378.537,298.958Z" fill="#6b6b6b" />
			<path id="Path_31" data-name="Path 31" d="M345.334,284.7a14.754,14.754,0,1,1,14.488-15.016A14.755,14.755,0,0,1,345.334,284.7Z" fill="#ffcc05" />
			<path id="Path_32" data-name="Path 32" d="M345.278,281.514a11.571,11.571,0,1,1,11.362-11.777A11.571,11.571,0,0,1,345.278,281.514Z" fill="#454448" />
			<path id="Path_33" data-name="Path 33" d="M348.948,335.966a14.754,14.754,0,1,1,14.487-15.017A14.754,14.754,0,0,1,348.948,335.966Z" fill="#ffcc05" />
			<path id="Path_34" data-name="Path 34" d="M218.917,350.394s55.24-41.58-40.648-83.159C178.269,267.235,282.675,300.871,218.917,350.394Z" fill="#d0c4b3" />
			<path id="Path_35" data-name="Path 35" d="M157.746,263.487s75.746,32.949,80.862,24.064C245.985,274.74,169.521,227.9,157.746,263.487Z" fill="#6b6b6b" />
			<g id="Group_3" data-name="Group 3">
				<path id="Path_36" data-name="Path 36" d="M348.961,364.667s-19.572-19.867-16.115-64.643C332.846,300.024,325.611,342.232,348.961,364.667Z" fill="#fffaef" />
				<path id="Path_37" data-name="Path 37" d="M338.774,371.919s-18.214-27.573-7.22-71.544C331.554,300.375,318.5,346.669,338.774,371.919Z" fill="#fffaef" />
				<path id="Path_38" data-name="Path 38" d="M324.146,364.748s-13.538-25.975,6.177-64.732C330.323,300.016,307.428,337.016,324.146,364.748Z" fill="#fffaef" />
			</g>
			<g id="Group_4" data-name="Group 4">
				<path id="Path_39" data-name="Path 39" d="M340.249,219.924S319.9,239,321.589,283.878C321.589,283.878,316.03,241.418,340.249,219.924Z" fill="#fffaef" />
				<path id="Path_40" data-name="Path 40" d="M330.356,212.274s-19.29,26.832-10.045,71.2C320.311,283.477,309.1,236.7,330.356,212.274Z" fill="#fffaef" />
				<path id="Path_41" data-name="Path 41" d="M315.457,218.862s-14.556,25.417,3.612,64.926C319.069,283.788,297.655,245.91,315.457,218.862Z" fill="#fffaef" />
			</g>
			<path id="Path_42" data-name="Path 42" d="M312.86,287.78l15.068,8.447L310.4,304.573l8.764-8.4Z" fill="#3c2a34" />
			<path id="Path_43" data-name="Path 43" d="M340.641,293.214l-9.7,2.963,8.925,4.694Z" fill="#ee4623" />
			<path id="Path_44" data-name="Path 44" d="M288.685,357.219s16.871-21.251.108-47.575c-8.836-13.875-26.941-17.925-30.308-7.682s13.333,14.586,12.463,27.554c-.669,9.955-14.82,27.688-14.82,27.688l15.463.527Z" fill="#6b6b6b" />
			<path id="Path_45" data-name="Path 45" d="M279.88,244.124s18.126,7.531,1.757,34.1c-8.628,14-26.671,18.323-30.192,8.13S264.56,271.574,263.5,258.62c-.816-9.944-15.3-24.57-15.3-24.57Z" fill="#6b6b6b" />
			<path id="Path_46" data-name="Path 46" d="M355.41,278.684a2.436,2.436,0,1,1-2.435-2.436A2.436,2.436,0,0,1,355.41,278.684Z" fill="#f5efdb" />
			<path id="Path_47" data-name="Path 47" d="M348.115,332.782a11.571,11.571,0,1,1,11.362-11.776A11.57,11.57,0,0,1,348.115,332.782Z" fill="#454448" />
			<path id="Path_48" data-name="Path 48" d="M358.248,329.952a2.436,2.436,0,1,1-2.437-2.435A2.436,2.436,0,0,1,358.248,329.952Z" fill="#f5efdb" />
			<path id="Path_49" data-name="Path 49" d="M200.542,352.893s-8.21-38.7-59.93-31.68c-21.5,2.92,13.612-70.044-30.671-59.639C109.941,261.574,84.668,355.665,200.542,352.893Z" fill="#6b6b6b" />
			<path id="Path_50" data-name="Path 50" d="M189.841,260.817s21.16,2.441,20.224,10.71S172.279,261.311,189.841,260.817Z" fill="#df9fa1" />
			<path id="Path_51" data-name="Path 51" d="M220.77,267.531s-3.874-2.133-5.677.516S228.285,273.846,220.77,267.531Z" fill="#df9fa1" />
			<path id="Path_52" data-name="Path 52" d="M220.173,273.561s-3.665-2.475-5.7,0S227.086,280.528,220.173,273.561Z" fill="#df9fa1" />
			<path id="Path_53" data-name="Path 53" d="M216.656,279.694s-2.886-3.35-5.5-1.5S221.5,288.233,216.656,279.694Z" fill="#df9fa1" />
			<path id="Path_54" data-name="Path 54" d="M338.774,328.317" fill="#df9fa1" />
			<path id="Path_55" data-name="Path 55" d="M258.485,301.962s5.84,4.2,7.086,7.68C265.571,309.642,265.1,301.674,258.485,301.962Z" fill="#f5efdb" />
			<path id="Path_56" data-name="Path 56" d="M260.76,298.78s5.84,4.2,7.086,7.68C267.846,306.46,267.373,298.492,260.76,298.78Z" fill="#f5efdb" />
			<path id="Path_57" data-name="Path 57" d="M265.571,296.539s5.84,4.2,7.086,7.68C272.657,304.219,272.185,296.251,265.571,296.539Z" fill="#f5efdb" />
			<path id="Path_58" data-name="Path 58" d="M258.527,275.84s-3.927,6.027-7.343,7.432C251.184,283.272,259.121,282.433,258.527,275.84Z" fill="#f5efdb" />
			<path id="Path_59" data-name="Path 59" d="M260.846,280.038s-4.358,5.725-7.868,6.877C252.978,286.915,260.956,286.657,260.846,280.038Z" fill="#f5efdb" />
			<path id="Path_60" data-name="Path 60" d="M229.56,279.859s6.688,2.651,8.746,5.719C238.306,285.578,235.9,277.966,229.56,279.859Z" fill="#f5efdb" />
			<path id="Path_61" data-name="Path 61" d="M226.935,284.024s7.078,1.291,9.7,3.9C236.63,287.922,232.786,280.927,226.935,284.024Z" fill="#f5efdb" />
			<path id="Path_62" data-name="Path 62" d="M154.063,205.9s82.3-7.09,82.566-17.339C237.017,173.785,147.475,169,154.063,205.9Z" fill="#6b6b6b" />
			<path id="Path_63" data-name="Path 63" d="M181.016,188.272s19.769-7.928,22.883-.21S165.807,197.069,181.016,188.272Z" fill="#df9fa1" />
			<path id="Path_64" data-name="Path 64" d="M211.411,179.451s-4.423-.032-4.747,3.156S221.025,181.426,211.411,179.451Z" fill="#df9fa1" />
			<path id="Path_65" data-name="Path 65" d="M213.757,185.038s-4.4-.432-5.013,2.714S223.153,187.873,213.757,185.038Z" fill="#df9fa1" />
			<path id="Path_66" data-name="Path 66" d="M213.583,192.106s-4.132-1.573-5.55,1.3S221.906,197.31,213.583,192.106Z" fill="#df9fa1" />
			<path id="Path_67" data-name="Path 67" d="M225.01,186.107s7.143-.854,10.413.865C235.423,186.972,229.686,181.422,225.01,186.107Z" fill="#f5efdb" />
			<path id="Path_68" data-name="Path 68" d="M224.685,191.019s6.838-2.234,10.381-1.188C235.066,189.831,228.354,185.51,224.685,191.019Z" fill="#f5efdb" />
			<path id="Path_69" data-name="Path 69" d="M264.5,283.2s-3.928,6.028-7.344,7.433C257.159,290.632,265.1,289.792,264.5,283.2Z" fill="#f5efdb" />
		</g>
	</g>
</svg>
