<svg xmlns="http://www.w3.org/2000/svg" width="141.905" height="172.14" viewBox="0 0 141.905 172.14">
	<g id="Group_3328" data-name="Group 3328" transform="translate(-619.667 100.944) rotate(-10)">
		<g id="Group_1" data-name="Group 1" transform="translate(631.336 79.296)">
			<path id="Path_1" data-name="Path 1" d="M620.993,66.055a14.244,14.244,0,0,0,5.47,7.395c2.247,1.607,5.025-.591,5.145-2.952a11.121,11.121,0,0,0-4.913-9.611c-1.9-1.353-4.389.124-5.022,2.043-1.056,3.2-1,8.518,2.408,10.36,3.852,2.082,7.621-1.788,8.133-5.418.512-3.612-2.171-7.6-6.192-6.417-3.644,1.071-5.046,6.345-1.416,8.372,3.845,2.148,7.3-3.754,3.451-5.9,1.337.746,1.817,3.764-.109,4.077l-1.724-.25a1.618,1.618,0,0,1-.693-.769q-.053-.463-.047-.081c-.008.245-.005.228.012-.049a.573.573,0,0,1-.123.4.263.263,0,0,1,.2-.133,2.4,2.4,0,0,1,2.618,1.09,4.17,4.17,0,0,0-.244-.841,5.222,5.222,0,0,1,.319-2.621q-2.511,1.023-5.021,2.043a4.31,4.31,0,0,1,1.264,1.677,4.4,4.4,0,0,1,.262,2.03l5.143-2.952a6.77,6.77,0,0,1-2.329-3.309,3.494,3.494,0,0,0-4.2-2.388,3.457,3.457,0,0,0-2.388,4.206Z" transform="translate(-620.854 -60.363)" fill="#ffd124" />
		</g>
		<g id="Group_2" data-name="Group 2" transform="translate(651.605 66.943)">
			<path id="Path_2" data-name="Path 2" d="M643.359,59.013c-.119-5.264-8.1-5.076-8.229.116-.089,3.469,3.471,7.4,7.03,7.2,4.465-.252,5.843-5.229,3.657-8.59-2.03-3.121-5.954-4.586-9.539-4.727-2.421-.1-3.633,2.25-3.3,4.327a11.05,11.05,0,0,0,8.965,8.842c1.837.264,3.655-.426,4.2-2.388A7.2,7.2,0,0,0,641.52,55.1c-1.723-.67-3.753.737-4.206,2.388a3.5,3.5,0,0,0,2.388,4.2l-.186-.059c-.18-.165-.186-.165-.017,0-.007.007.092.024.173.289-.124-.411-.092.136-.01.166-.173-.064.139-.979-.1-.111l4.2-2.388a4.438,4.438,0,0,1-4.188-4.068q-1.65,2.163-3.3,4.329a6.188,6.188,0,0,1,2.154.45,5.635,5.635,0,0,1,1.175.66c-.012-.008.752.784.408.381.6.7-.139.071.081-.114q.111-1.363,1.907-1.714a1.667,1.667,0,0,1,.455.067c.052.275-.361-.388-.448-.489q.242.232-.114-.255a2.11,2.11,0,0,1,.062.865q-.438.753-.878,1.508l-2.967.391-1.227-1.227.1.163q-.234-.861-.467-1.726l.005.208c.1,4.392,6.936,4.409,6.837,0Z" transform="translate(-632.925 -53.005)" fill="#ffd124" />
		</g>
		<g id="Group_3" data-name="Group 3" transform="translate(678.094 48.359)">
			<path id="Path_3" data-name="Path 3" d="M655.266,43.178c-2.843-1.488-5.731.3-6.426,3.281a7.81,7.81,0,0,0,2.359,6.9,5.747,5.747,0,0,0,7.015.866A5.832,5.832,0,0,0,660.508,48a5.587,5.587,0,0,0-5.24-4.372,6.456,6.456,0,0,0-6.088,4.431c-1.892,5.385,4.421,9.893,9.227,7.835,3.271-1.4,3.968-5.078,2.357-8.043a13.133,13.133,0,0,0-6.088-5.519A3.527,3.527,0,0,0,650,43.562c-.853,1.457-.469,3.921,1.226,4.676a9.026,9.026,0,0,1,2.1,1.219,6.759,6.759,0,0,1,1,1.011c.087.112.376.752.536.836-.336-.178.95-1.729.959-1.7q.423.013-.228.005l.153,0c-.761-.18.341.013-.05.4-.035.035.032.186-.012.249-.29.418-1.086.126-1.373-.091a1.447,1.447,0,0,1-.442-.645.594.594,0,0,1,.054-.43q-.207.635.146-.072a.938.938,0,0,1,.448-.537,1.013,1.013,0,0,1,1.066-.149c.67-.16.331.564.215-.062.03.168-.2-.479-.2-.473-.047-.237-.067-.264-.059-.077a1.541,1.541,0,0,1-.8,1.232q-.864.234-1.726.467l.262-.01-1.726-.467.264.138c3.894,2.038,7.354-3.86,3.45-5.9Z" transform="translate(-648.701 -41.937)" fill="#ffd124" />
		</g>
		<g id="Group_4" data-name="Group 4" transform="translate(698.28 37.785)">
			<path id="Path_4" data-name="Path 4" d="M665.286,44.7a8.027,8.027,0,0,0,7.861,7.932,3.468,3.468,0,0,0,3.419-3.419,13.554,13.554,0,0,0-12.348-13.564,3.415,3.415,0,0,0-3.3,2.51c-1.291,6.333,3.926,13.2,10.721,12.418,1.973-.228,4.177-2.035,3.3-4.329a7.138,7.138,0,0,0-8.317-4.728c-1.822.311-2.843,2.552-2.388,4.2a3.5,3.5,0,0,0,4.2,2.388c-.423.072-.005.183-.092-.045q1.647-2.164,3.3-4.327c-2.062.238-4.612-1.389-4.127-3.764l-3.3,2.51c3.273.344,5.581,3.61,5.511,6.726q1.71-1.71,3.419-3.419a1.039,1.039,0,0,1-1.024-1.095c-.089-4.394-6.926-4.409-6.837,0Z" transform="translate(-660.724 -35.64)" fill="#ffd124" />
		</g>
		<g id="Group_5" data-name="Group 5" transform="translate(672.873 82.057)">
			<path id="Path_5" data-name="Path 5" d="M652.083,62.487a16.325,16.325,0,0,0-5.635,4.806,5.309,5.309,0,0,0,.818,6.758,6.421,6.421,0,0,0,6.337,1.442c2.369-.779,3.9-2.668,5.331-4.589,1.333-1.787-.092-4.518-2.043-5.022a11.07,11.07,0,0,0-8.75,1.3,3.419,3.419,0,0,0,3.451,5.9,4.152,4.152,0,0,1,3.482-.616q-1.022-2.511-2.043-5.022a14.624,14.624,0,0,1-1.34,1.437c-.661.631-.287-.091-.039.089q.532.1-.075-.059a.462.462,0,0,1,.311.123.747.747,0,0,1,.259.264,1.577,1.577,0,0,1-.04,1.766c.025.013.962-.955,1.011-1a13.706,13.706,0,0,1,2.418-1.682c3.817-2.188.378-8.1-3.45-5.9Z" transform="translate(-645.592 -62.007)" fill="#ffd124" />
		</g>
		<g id="Group_6" data-name="Group 6" transform="translate(655.89 95.657)">
			<path id="Path_6" data-name="Path 6" d="M637.515,74.434l2.272,6.649a3.467,3.467,0,0,0,5.022,2.042c3.543-2.023,4.609-7.218,1.77-10.3a6.653,6.653,0,0,0-5.165-2.119,7.011,7.011,0,0,0-5.435,3.053c-1.108,1.478-.238,3.82,1.226,4.678a3.5,3.5,0,0,0,4.678-1.227c-.218.292-.22.23-.519.411.359-.082.42-.113.181-.086s-.173.015.2,0c-.594-.181.294.091-.054-.018a.46.46,0,0,1-.272-.212q.39.4.141.139c-.442-.536,0-.1-.123-.049-.044-.349-.062-.4-.059-.141s0,.207.027-.139l-.086.3c.153-.337.133-.331-.057.017.077-.212.714-.561.1-.21q2.511,1.023,5.022,2.043l-2.272-6.649a3.5,3.5,0,0,0-4.206-2.388,3.453,3.453,0,0,0-2.388,4.206Z" transform="translate(-635.477 -70.106)" fill="#ffd124" />
		</g>
		<g id="Group_7" data-name="Group 7" transform="translate(698.08 66.813)">
			<path id="Path_7" data-name="Path 7" d="M663.156,54.127a5.431,5.431,0,0,0-2.413,4.181,5.67,5.67,0,0,0,.937,3.466,5.3,5.3,0,0,0,8.28.678,5.581,5.581,0,0,0-.761-8.521,6.023,6.023,0,0,0-7.615.789,3.418,3.418,0,1,0,4.834,4.834c.42-.455-.739.39-.055.029q.355-.184-.4.17c.356-.086.232-.081-.371.018a1.887,1.887,0,0,1,.275-.01q.413.01-.452-.084a3.23,3.23,0,0,1,.356.086l-.48-.212a2.358,2.358,0,0,1,.311.178q-.665-.552-.289-.181l-.322-.4c-.191-.536-.235-.631-.128-.282q-.076-.839-.076-.428c-.008.272.012.131.06-.426-.107.343-.062.255.136-.265-.146.237-.128.232.054-.012.7-.515-1,.682.252-.212l-.168.094a1.668,1.668,0,0,1,.991-.27q-.428-.01.081.03a1.39,1.39,0,0,1,.781.254c-.294-.18-.2-.1.294.25q-.259-.28.052.1.287.4.081.071c.215.568.265.683.148.351-.136-.581,0,.88.013.245s-.225.811-.039.257q-.4.836-.148.376a1.937,1.937,0,0,1-.771.759,3.741,3.741,0,0,0,1.572-2.043,3.494,3.494,0,0,0-.344-2.634c-.91-1.412-3.147-2.373-4.678-1.226Z" transform="translate(-660.604 -52.928)" fill="#ffd124" />
		</g>
		<g id="Group_8" data-name="Group 8" transform="translate(649.9 116.764)">
			<path id="Path_8" data-name="Path 8" d="M636.984,82.85a7.665,7.665,0,0,0-2.942,12.529,3.463,3.463,0,0,0,4.834,0c2.02-2.074,3.59-5.057,1.832-7.819-1.568-2.462-5.351-3.323-7.423-.971a3.5,3.5,0,0,0,0,4.836,3.452,3.452,0,0,0,4.834,0,2.182,2.182,0,0,1-2.974.065,2.03,2.03,0,0,1-.49-1.516c-.106-.094-.487.442-.613.571h4.834c-.395-.4-.055.148-.121-.139q-.139-.262-.015,0c.072.178.079.173.018-.015q-.088-.37-.015.165l-.017-.3,0-.307c-.067.349-.074.4-.023.148.007-.06.175-.678.054-.324-.133.383.18-.327.232-.411-.24.385-.149.017.039-.007-.27.18-.3.207-.1.076s.166-.113-.129.017a3.521,3.521,0,0,0,2.388-4.2c-.452-1.639-2.477-3.064-4.206-2.388Z" transform="translate(-631.91 -82.677)" fill="#ffd124" />
		</g>
		<g id="Group_9" data-name="Group 9" transform="translate(694.889 111.168)">
			<path id="Path_9" data-name="Path 9" d="M660.032,86.587c.467.646.045-.655.1.191.035.507.077,1.006.148,1.509a5.582,5.582,0,0,0,1.637,3.388,5.27,5.27,0,0,0,6.427.391,6.05,6.05,0,0,0,2.717-6.213,10.051,10.051,0,0,0-3.514-5.556,3.58,3.58,0,0,0-4.142-.536,10.922,10.922,0,0,0-3.739,2.828,3.511,3.511,0,0,0,0,4.836,6.021,6.021,0,0,0,8.449.237,3.419,3.419,0,1,0-4.834-4.836,1.045,1.045,0,0,1,.876-.324c.272.042.808.586.343.087v4.836a5.525,5.525,0,0,1,2.356-1.76l-4.142-.534a5.672,5.672,0,0,1,1.684,1.948q-.174-.365.02.225a.629.629,0,0,1-.035-.5.892.892,0,0,1,.27-.5q-.431.408-.007.012a2.146,2.146,0,0,1,2.245.74.546.546,0,0,1,.126.426c-.018-.237-.035-.472-.047-.709a6.932,6.932,0,0,0-1.038-3.642,3.516,3.516,0,0,0-4.676-1.226c-1.478.863-2.312,3.172-1.227,4.676Z" transform="translate(-658.704 -79.345)" fill="#ffd124" />
		</g>
		<g id="Group_10" data-name="Group 10" transform="translate(706.34 86.499)">
			<path id="Path_10" data-name="Path 10" d="M666.392,66.3a7.335,7.335,0,0,0,.994,8.409,6.268,6.268,0,0,0,8.3.482,5.438,5.438,0,0,0,.673-8.15c-2.085-2.117-5.857-2.52-7.952-.18A3.419,3.419,0,0,0,673.24,71.7c.2-.212.193-.218-.032-.02a1.389,1.389,0,0,1-.616.343l-.5.069c.291.013.279.008-.034-.018q-.468-.073-.035.04l-.416-.165c.609.275-.465-.465-.008.01a1.6,1.6,0,0,1-.475-1.014c-.023-.242.2-.991.005-.463.044-.121.631-.977.248-.539l.316-.243q-.406.219-.02.049c.413-.294-.144.168-.285.054l.423-.071c-.314-.013-.322-.007-.027.02q.438.071-.017-.044l.378.139c.292.254.349.294.171.126s-.133-.118.119.185c-.245-.593.148.341-.049-.018s-.062-.492-.055-.015c-.005-.351.165-.787-.052-.17.065-.191.368-.91.018-.2a3.419,3.419,0,0,0-5.9-3.451Z" transform="translate(-665.523 -64.653)" fill="#ffd124" />
		</g>
		<g id="Group_11" data-name="Group 11" transform="translate(727.907 56.317)">
			<path id="Path_11" data-name="Path 11" d="M679.668,48.333c-1.474,2.681-2.07,6.337.257,8.755a5.52,5.52,0,0,0,8.612-1.206,5.142,5.142,0,0,0-3.116-7.667c-2.814-.752-6.234.918-6.861,3.882a3.419,3.419,0,0,0,6.592,1.817c.07-.269.049-.254-.062.047a1.389,1.389,0,0,1-.425.631c.448-.458-.678.408-.106.091l-.465.2q.536-.136-.344.005c.151-.01.724.035.119-.044a1.373,1.373,0,0,1-.482-.146c.138.077-.527-.453-.643-.651a1.87,1.87,0,0,1-.186-1.394q.322-.657.131-.317-.2.325.2-.245c-.4.49.568-.319-.028,0l.4-.181c.517-.037.641-.052.375-.049s-.144.01.381.04l.912.522q-.4-.408.087.129c.054.126.107.252.163.378-.223-.561-.091.557,0-.074.121-.845-.249.7.023-.143.084-.26.153-.524.249-.782-.2.537-.042.138.116-.151a3.419,3.419,0,0,0-5.9-3.451Z" transform="translate(-678.368 -46.677)" fill="#ffd124" />
		</g>
		<g id="Group_12" data-name="Group 12" transform="translate(753.779 32.482)">
			<path id="Path_12" data-name="Path 12" d="M702.695,34.625c-1.778-.892-3.852-1.629-5.831-.915a4.26,4.26,0,0,0-2.88,2.859,5.993,5.993,0,0,0-.01,3.086c.981,3.7,5.512,5.9,8.817,3.623,3.017-2.079,3.844-6.809.908-9.356-2.737-2.376-7.682-1.81-9.31,1.664a3.5,3.5,0,0,0,1.226,4.678c1.515.8,3.867.5,4.678-1.226.376-.8-.368.274.017-.082-.131.1-.26.2-.39.3q.468-.262-.3.086a2.856,2.856,0,0,1,.371-.111c-.175.018-.349.039-.526.059a2.744,2.744,0,0,1,.39-.012q-.879-.154-.336-.045c.588.186-.661-.423-.116-.052q-.64-.542-.252-.171l-.294-.376c.169.321.134.23-.109-.274.08.363.067.255-.035-.324.044.618.24-.747.023-.116-.239.693.349-.734.03-.074q-.3.451.176-.21-.3.287.05-.005c.247-.176.254-.191.022-.042q.783-.292.262-.136a1.159,1.159,0,0,1,.73-.03c.309.059.321.055.033-.008q.718.343.232.082c.364.309.45.378.26.2-.6-.541.2.477-.067-.081q.255.685.136.316a1.842,1.842,0,0,1-.079-.312c.334.217-.225,1.518.133.552q-.786,1.02-1.57,2.043c.265-.171.27-.2.012-.077a1.2,1.2,0,0,1-.623.118c.621-.03-.4-.173-.025-.027.2.077.438.136.64.2-.534-.161-.153-.062.158.092a3.418,3.418,0,1,0,3.45-5.9Z" transform="translate(-693.777 -32.482)" fill="#ffd124" />
		</g>
		<g id="Group_13" data-name="Group 13" transform="translate(723.475 39.454)">
			<path id="Path_13" data-name="Path 13" d="M675.875,39.132a7.384,7.384,0,0,0,.173,3.669c.581,1.646,1.63,3.19,3.493,3.44a3.959,3.959,0,0,0,3.978-2.023,3.87,3.87,0,0,0-1.374-5.225,3.45,3.45,0,0,0-4.676,1.227,3.488,3.488,0,0,0,1.226,4.676l.084.054-.692-.536.06.065c-.178-.23-.358-.46-.536-.692l.039.076-.344-.816.017.084c-.04-.3-.082-.606-.123-.908l0,.087q.063-.453.123-.908a.558.558,0,0,1-.05.181q.174-.408.344-.816a.764.764,0,0,1-.1.17l.536-.692a.82.82,0,0,1-.139.136l.692-.536-.079.049.816-.344a.409.409,0,0,1-.166.045c.3-.04.606-.081.908-.123L680,39.465l.908.123-.082-.034.816.344-.079-.06,1.227,1.227a4.206,4.206,0,0,1-.427-.739l.344.816a4.351,4.351,0,0,1-.264-.987c.042.3.082.606.123.908a4.4,4.4,0,0,1,0-.853c-.04.3-.082.606-.123.908l.025-.168a3.739,3.739,0,0,0-.344-2.634,3.415,3.415,0,0,0-4.676-1.226,3.294,3.294,0,0,0-1.572,2.042Z" transform="translate(-675.728 -36.634)" fill="#ffd124" />
		</g>
		<g id="Group_14" data-name="Group 14" transform="translate(653.613 145.433)">
			<path id="Path_14" data-name="Path 14" d="M644.808,101.483c-2.912-2.742-8.28-2.238-10.093,1.587a6.446,6.446,0,0,0,5.687,9.1c4.579.05,7.458-5.353,5.457-9.248a6.056,6.056,0,0,0-10.113-.638c-3.041,4.426,2.6,10.306,7.175,7.648a3.419,3.419,0,1,0-3.451-5.9,1.874,1.874,0,0,1,1.174-.186c.126.018.793.277.583.158-.351-.2.616.542.1.032a1.623,1.623,0,0,1,.426.735c-.134-.458,0,.106,0,.267a1.75,1.75,0,0,1-.366,1.056c-.069.089-.6.519-.383.381.386-.242-.724.385-.779.188,0,.007.455-.017.453,0l-.455-.052q.431.136.029-.024c-.653-.013.448-.05-.156-.107q-.325-.277,0,.025l-.257-.332c-.111-.176-.215-.564-.065-.133l-.056-.411c-.013.321-.005.336.022.049.175-.668-.188.477.029-.131.158-.438-.408.411.183-.222-.03.032-.364.349-.359.361-.049-.129.571-.343.641-.369-.72.274.464-.007.034.017-.338.018.391.1.46.1.248.119.233.1-.044-.047l.285.227c-.1-.294-.134-.161.028.116-.092-.158-.245-.653-.18-.274.094.547.109-.487.051.128.032.289.045.272.039-.047l-.034.411c-.064.235-.277.47-.03.144-.081.106-.72.692-.448.48.163-.126.505-.143.138-.1-.222.089-.242.106-.062.05.257-.062.156-.055-.3.017a1.831,1.831,0,0,1,.489,0c-.05-.084-.732-.064-.2.018-.4-.186-.494-.217-.272-.087s.138.081-.218-.156a3.418,3.418,0,1,0,4.834-4.834Z" transform="translate(-634.121 -99.752)" fill="#ffd124" />
		</g>
		<g id="Group_15" data-name="Group 15" transform="translate(717.514 104.817)">
			<path id="Path_15" data-name="Path 15" d="M676.938,76.049a10.711,10.711,0,0,0-4.757,8.515,3.432,3.432,0,0,0,2.51,3.3c2.514.438,5.264.631,7.524-.8a6.614,6.614,0,0,0,3.078-6.475,5.593,5.593,0,0,0-5.622-4.695c-2.463.02-4.663,1.454-6.464,3a3.447,3.447,0,0,0,0,4.834,3.487,3.487,0,0,0,4.834,0c.146-.124.363-.3.081-.086.228-.171.468-.327.712-.475.2-.118.395-.228.6-.331.48-.242-.4.1.1-.03.534-.144.415.069.141-.072l.287.007-.358-.018a1.728,1.728,0,0,1-.915-.707c-.07-.139-.118-.945-.134-.561-.024.5-.01-.583,0-.079-.059.185-.056.183.012-.007s.072-.191-.022-.018-.1.166.007.007q.222-.287-.126.082a.608.608,0,0,1,.363-.233c-.238.062-.467.151-.712.191.368-.06-.081-.01-.207-.015a10.326,10.326,0,0,1-1.357-.107l2.509,3.3a3.549,3.549,0,0,1,.391-1.427c.071-.128.68-.944.363-.584.106-.119.989-.86.616-.6a3.508,3.508,0,0,0,1.226-4.678,3.448,3.448,0,0,0-4.676-1.226Z" transform="translate(-672.179 -75.562)" fill="#ffd124" />
		</g>
		<g id="Group_16" data-name="Group 16" transform="translate(625.511 111.454)">
			<path id="Path_16" data-name="Path 16" d="M621.64,79.7a6.4,6.4,0,0,0-3.959,4.042,6.119,6.119,0,0,0,.6,5.083,3.549,3.549,0,0,0,3.86,1.572,6.936,6.936,0,0,0,5.064-4.772,3.441,3.441,0,0,0-3.3-4.327c-2,.1-3.969.964-4.56,3.064a3.977,3.977,0,0,0,2.7,4.936,3.74,3.74,0,0,0,4.613-3.593,3.687,3.687,0,0,0-4.613-3.622,3.447,3.447,0,0,0-2.388,4.2,3.5,3.5,0,0,0,4.206,2.388l.108-.023-2.635-.344.084.035L620.2,87.115l.012-2.92,1.226-1.226-.086.065q.864-.234,1.726-.467c.213.027.427.054.64.082l1.508.88.5,3.241L624.5,88q.516-.335-.324,0-.9.194-.267.133l-3.3-4.327c-.228.7.383-.561-.044.039q.426-.509.173-.227a2.536,2.536,0,0,1-.252.25l.319-.245a3.27,3.27,0,0,1-.408.237l.381-.168a3.641,3.641,0,0,1-.458.111l3.86,1.57c-.264-.413.1.193.07.3,0,.01-.176-.848-.069-.114.081.564.017.1.037-.034.062-.418-.143.927-.01.227.091-.489-.015.233-.128.265a2.6,2.6,0,0,0,.2-.339l-.29.386q.3-.282-.055.007-.335.239-.111.1.337-.2-.374.131c1.654-.667,3-2.31,2.388-4.206-.517-1.6-2.428-3.1-4.2-2.388Z" transform="translate(-617.384 -79.515)" fill="#ffd124" />
		</g>
		<g id="Group_17" data-name="Group 17" transform="translate(628.38 140.361)">
			<path id="Path_17" data-name="Path 17" d="M625.292,96.738c-3.983.287-7.139,4.033-5.94,8.066a6.392,6.392,0,0,0,9.262,3.491c3.367-2.117,3.852-7.556.264-9.729-3.313-2.007-8.29.47-8.08,4.523a3.419,3.419,0,0,0,6.837,0c0-.413-.054-.3-.163.339a1.242,1.242,0,0,1-.44.913c-.4.267-.485.334-.265.2s.119-.089-.309.116c.509-.195-.239.018-.482-.017a1.62,1.62,0,0,1-1.415-1.6c.091.85-.061-.769-.018.077l.141-.353c-.17.267-.18.289-.027.065a.863.863,0,0,1,.4-.371q.589-.191.225-.082c-.438.092.673-.087,0-.018.426.071.514.072.26.008s-.173-.04.2.1c-.547-.379.277.484-.143-.106.089.126.374.828.3.494-.077-.351-.032.457-.045.589.1-.912-.116.673.081-.2-.23.277-.26.329-.091.153s.129-.134-.146.1c.472-.327-.126.052-.413.074a3.419,3.419,0,1,0,0-6.837Z" transform="translate(-619.094 -96.731)" fill="#ffd124" />
		</g>
		<g id="Group_18" data-name="Group 18" transform="translate(709.763 134.308)">
			<path id="Path_18" data-name="Path 18" d="M668.269,95.618c-1.127,2.734-1.017,6.315,1.143,8.536a6.367,6.367,0,0,0,7.751,1.019,4.972,4.972,0,0,0,.75-7.872c-2.2-2.114-6.224-2.148-7.747.806a3.419,3.419,0,1,0,5.9,3.451q.3-.514-.341.264a1.611,1.611,0,0,1-.939.667l-.571.1c-.578-.1-.734-.116-.465-.039.381.094-.71-.368-.215-.057-.4-.329-.5-.4-.319-.223s.1.084-.242-.317a2.03,2.03,0,0,1,.284-2.352q.6-.411.272-.213t.322-.134c-.564.223.539-.02.138-.02s.818.228.114.017c-.6-.181.432.243.071.035s.584.386.069.035q.348.466.144.126-.174-.325.052.123c-.089-.658-.084.282-.05-.141.022-.257-.007-.519.02-.776-.076.73.1-.237.124-.331a9.176,9.176,0,0,1,.322-.885c.683-1.659-.739-3.83-2.388-4.2a3.523,3.523,0,0,0-4.2,2.388Z" transform="translate(-667.562 -93.126)" fill="#ffd124" />
		</g>
		<g id="Group_19" data-name="Group 19" transform="translate(675.632 122.396)">
			<path id="Path_19" data-name="Path 19" d="M652.18,86.128c-4.735,1.091-6.609,7.584-3.212,11.043s10.313,1.546,11.11-3.388a3.564,3.564,0,0,0-1.572-3.862,9.263,9.263,0,0,0-9.591.126,3.419,3.419,0,1,0,3.451,5.9,2.207,2.207,0,0,1,2.69-.126l-1.572-3.86a3.784,3.784,0,0,1-.116.536c-.136-.037.505-.818.255-.484-.287.386.42-.338.065-.012-.069.064-.593.3-.2.143.438-.178-.285.05-.383.069.265-.05.489-.149.091-.076.254-.047.526.131.119-.032.123.049.751.468.49.228-.24-.22.158.257.21.343.141.232.106-.166.019.123-.118.386.028-.141.022-.329.008.233-.02.564.024.128.04-.411.146-.121-.04.081.331-.358.035,0-.082.05.747-.306-.45.136.005-.037s-.794.218.037.025a3.419,3.419,0,0,0-1.817-6.592Z" transform="translate(-647.235 -86.032)" fill="#ffd124" />
		</g>
		<g id="Group_20" data-name="Group 20" transform="translate(605.418 135.025)">
			<path id="Path_20" data-name="Path 20" d="M605.685,96.972a10.842,10.842,0,0,0,7.823,11.05,3.449,3.449,0,0,0,4.329-3.3,10.207,10.207,0,0,0-7.249-9.46,3.39,3.39,0,0,0-3.326.878,6.254,6.254,0,0,0-1.508,6.377,3.488,3.488,0,0,0,4.2,2.388,7.963,7.963,0,0,0,4.812-3.736c2.2-3.818-3.7-7.265-5.9-3.452-.255.445-.23.452-.725.594l4.2,2.388c-.3-.829.064-.059-.25.277l-3.326.878a3.165,3.165,0,0,1,2.23,2.868q2.164-1.65,4.327-3.3a4.052,4.052,0,0,1-2.8-4.458,3.444,3.444,0,0,0-3.419-3.419,3.491,3.491,0,0,0-3.418,3.419Z" transform="translate(-605.418 -93.553)" fill="#ffd124" />
		</g>
		<g id="Group_21" data-name="Group 21" transform="translate(681.555 153.117)">
			<path id="Path_21" data-name="Path 21" d="M652.179,108.234c-1.5,3.976,2.21,8.884,6.466,8.427a3.566,3.566,0,0,0,3.3-2.51,7.881,7.881,0,0,0-7.1-9.813c-1.995-.17-3.214,1.716-3.419,3.419a8.165,8.165,0,0,0,6.13,8.5,3.463,3.463,0,0,0,4.329-3.3,8.15,8.15,0,0,0-7.7-8.117,3.435,3.435,0,0,0-3.419,3.419,3.5,3.5,0,0,0,3.419,3.419c-.328-.025-.338-.072-.007.018.307.086.311.149.03-.01a5.936,5.936,0,0,1,.522.317c-.393-.28-.065-.008.109.175.336.351-.215-.388.017.04.035.067.29.618.164.274s.042.254.061.314c.136.445-.02-.707-.034.151q2.163-1.647,4.327-3.3a5.351,5.351,0,0,1-.583-.163c.6.218.015-.045-.121-.134-.4-.262.307.324-.008-.039-.114-.133-.431-.633-.138-.129-.1-.175-.207-.346-.3-.527.15.3.107.267.024-.03-.17-.6-.086.22-.032-.133.035-.242.015-.51.045-.754q-1.71,1.708-3.419,3.419c-.734-.064-.138-.018.057.059.237.079.178.057-.175-.069l.242.141c-.186.035-.375-.344.074.084.2.19.317.578.091.077.076.166.19.336.28.494-.348-.6.007-.1-.008.111-.028.406-.057-.6,0,.062.057.692.151-.531-.054.2l3.3-2.509c-.792.084-.359-.022.17.213q-.483-.3.025.086a3.475,3.475,0,0,1-.381-.388c.259.331.289.334.087.01q.244.607.079.057c.084.574-.143,1.014.146.25a3.433,3.433,0,0,0-2.388-4.206,3.512,3.512,0,0,0-4.2,2.388Z" transform="translate(-650.762 -104.328)" fill="#ffd124" />
		</g>
		<g id="Group_22" data-name="Group 22" transform="translate(611.588 165.981)">
			<path id="Path_22" data-name="Path 22" d="M616.4,116.947a6.065,6.065,0,0,0-3.858-.987,3.533,3.533,0,0,0-3.3,2.51c-1.152,4.931,4.562,9.66,9.106,6.81,4.423-2.772,2.723-9.757-2.064-11a5.329,5.329,0,0,0-6.458,3.664,5.507,5.507,0,0,0,3.6,6.391,6.007,6.007,0,0,0,6.817-2.859,7.765,7.765,0,0,0-.514-7.86c-2.282-3.754-8.2-.322-5.9,3.451.069.114.648,1.19.455,1.164s.521-.453.583-.467a1.62,1.62,0,0,1,1.526.776c.248.494.047.786-.168,1.286-.443,1.039-.734,1.012-1.755,1.048-.332-.183-.391-.212-.171-.087s.165.091-.129-.1l-.161-.243c.163.3.2.337.108.107s-.067-.186.037.139l-.028-.339,0,.285a.929.929,0,0,1,.1-.51,1.606,1.606,0,0,1,.959-.835.8.8,0,0,1,.5.01q.385.091-.133-.035l.249.116q-.443-.282-.165-.076c.139.114.138.106,0-.03-.17-.176-.143-.143.079.1a1.886,1.886,0,0,1,.131.92q-1.647,1.257-3.3,2.51c.715-.072-.207-.348.408.054a3.419,3.419,0,1,0,3.45-5.9Z" transform="translate(-609.093 -111.989)" fill="#ffd124" />
		</g>
		<g id="Group_23" data-name="Group 23" transform="translate(651.61 167.671)">
			<path id="Path_23" data-name="Path 23" d="M634.842,114.679a7.133,7.133,0,0,0,.23,9.964,6.943,6.943,0,0,0,9.708-.645,6.769,6.769,0,0,0-1.694-10.058,6.45,6.45,0,0,0-5.306-.643,7.024,7.024,0,0,0-4.4,4.389c-.687,1.714.75,3.754,2.388,4.2a3.5,3.5,0,0,0,4.206-2.388c-.146.364-.344.447.017.175-.358.27-.5.114-.087.116-.321.022-.356.032-.1.03.269.005.217,0-.156-.013-.307-.149-.354-.165-.139-.044s.171.1-.1-.086c.235.254.275.29.124.111s-.123-.134.065.158q-.176-.468-.067-.118.093.373.005-.173c-.01.351,0,.4.018.139a.623.623,0,0,1,.158-.425c-.178.285-.191.327-.045.128s.123-.166-.107.077l.238-.188c-.342.183-.329.193.044.03l-.275.086q-.589.128.057.007l-.287,0q.652.113.071-.025l.292.123c-.324-.2-.329-.2-.013,0l.163.225q-.282-.519-.045.008l-.084-.289c.025.363.03.416.017.161a2.729,2.729,0,0,1,0-.453c-.055.358-.054.415.007.168s.049-.195-.07.121q.307-.5,0-.032a3.492,3.492,0,0,0,0-4.834,3.454,3.454,0,0,0-4.834,0Z" transform="translate(-632.928 -112.996)" fill="#ffd124" />
		</g>
	</g>
</svg>
