<svg xmlns="http://www.w3.org/2000/svg" width="95" height="95" viewBox="0 0 95 95">
  <g id="Group_3935" data-name="Group 3935" transform="translate(-319 -1201)">
    <g id="Group_3917" data-name="Group 3917" transform="translate(319 1201)">
      <circle id="pexels-photo-1310522" cx="47.5" cy="47.5" r="47.5" fill="#d6b0e1" opacity="0.5"/>
    </g>
    <g id="Group_3918" data-name="Group 3918" transform="translate(-1213.666 -594)">
      <g id="_001-friends" data-name="001-friends" transform="translate(1552 1808)">
        <path id="Path_601" data-name="Path 601" d="M194.695,4.187a7.63,7.63,0,1,0,7.63,7.63A7.638,7.638,0,0,0,194.695,4.187Z" transform="translate(-166.361 -4.187)" fill="#01aae4"/>
        <path id="Path_603" data-name="Path 603" d="M263.631,11.818A7.638,7.638,0,0,0,256,4.188V19.447A7.638,7.638,0,0,0,263.631,11.818Z" transform="translate(-227.668 -4.188)" fill="#2fa1c8"/>
        <path id="Path_605" data-name="Path 605" d="M278.926,130.619a7.63,7.63,0,1,0,7.63,7.63A7.638,7.638,0,0,0,278.926,130.619Z" transform="translate(-241.27 -116.626)" fill="#01aae4"/>
        <path id="Path_607" data-name="Path 607" d="M347.862,138.248a7.638,7.638,0,0,0-7.63-7.63v15.259A7.638,7.638,0,0,0,347.862,138.248Z" transform="translate(-302.576 -116.625)" fill="#2fa1c8"/>
        <path id="Path_609" data-name="Path 609" d="M110.462,130.619a7.63,7.63,0,1,0,7.63,7.63A7.638,7.638,0,0,0,110.462,130.619Z" transform="translate(-91.451 -116.626)" fill="#01aae4"/>
        <path id="Path_611" data-name="Path 611" d="M179.4,138.248a7.638,7.638,0,0,0-7.63-7.63v15.259A7.638,7.638,0,0,0,179.4,138.248Z" transform="translate(-152.757 -116.625)" fill="#2fa1c8"/>
        <path id="Path_613" data-name="Path 613" d="M173.284,380.415h-4.255a8.441,8.441,0,0,0-8.431,8.431v4a1.672,1.672,0,0,0,1.672,1.672h17.774a1.672,1.672,0,0,0,1.672-1.672v-4A8.441,8.441,0,0,0,173.284,380.415Z" transform="translate(-142.823 -338.775)" fill="#3cd651"/>
        <path id="Path_614" data-name="Path 614" d="M210.774,278.047h-4.519a6.2,6.2,0,0,0-6.191,6.191v4.015a6.191,6.191,0,0,0,12.381,0v-8.534A1.671,1.671,0,0,0,210.774,278.047Z" transform="translate(-177.922 -247.737)" fill="#ffcea1"/>
        <path id="Path_615" data-name="Path 615" d="M212.62,278.047h-6.364a6.2,6.2,0,0,0-6.191,6.191v.183a1.672,1.672,0,0,0,1.672,1.672h6.181a6.381,6.381,0,0,0,6.374-6.374A1.672,1.672,0,0,0,212.62,278.047Z" transform="translate(-177.923 -247.737)" fill="#ff765a"/>
        <path id="Path_616" data-name="Path 616" d="M258.128,380.415H256v14.1h8.887a1.672,1.672,0,0,0,1.672-1.672v-4A8.441,8.441,0,0,0,258.128,380.415Z" transform="translate(-227.667 -338.775)" fill="#00b869"/>
        <path id="Path_617" data-name="Path 617" d="M262.19,288.252v-8.534a1.672,1.672,0,0,0-1.672-1.672H256v16.4A6.2,6.2,0,0,0,262.19,288.252Z" transform="translate(-227.666 -247.736)" fill="#ffb883"/>
        <path id="Path_618" data-name="Path 618" d="M257.662,286.093a6.381,6.381,0,0,0,6.374-6.373,1.672,1.672,0,0,0-1.672-1.672H256v8.045Z" transform="translate(-227.667 -247.738)" fill="#ff3f83"/>
        <path id="Path_619" data-name="Path 619" d="M19.446,383.813a8.424,8.424,0,0,0-6.76-3.4H8.431A8.441,8.441,0,0,0,0,388.846v4a1.672,1.672,0,0,0,1.672,1.672H19.446v-10.7Z" transform="translate(0 -338.775)" fill="#80dbff"/>
        <path id="Path_620" data-name="Path 620" d="M50.177,278.047H45.658a6.2,6.2,0,0,0-6.191,6.191v4.015a6.191,6.191,0,0,0,12.381,0v-8.534A1.672,1.672,0,0,0,50.177,278.047Z" transform="translate(-35.099 -247.737)" fill="#bb5d4c"/>
        <path id="Path_621" data-name="Path 621" d="M52.022,278.047H45.658a6.2,6.2,0,0,0-6.191,6.191v.183a1.672,1.672,0,0,0,1.672,1.672H47.32a6.381,6.381,0,0,0,6.374-6.374A1.671,1.671,0,0,0,52.022,278.047Z" transform="translate(-35.099 -247.737)" fill="#005e7f"/>
        <path id="Path_622" data-name="Path 622" d="M347.314,380.415h-4.255a8.424,8.424,0,0,0-6.76,3.4v10.7h17.774a1.672,1.672,0,0,0,1.672-1.672v-4A8.441,8.441,0,0,0,347.314,380.415Z" transform="translate(-299.079 -338.775)" fill="#ff765a"/>
        <path id="Path_623" data-name="Path 623" d="M371.371,278.047h-4.519a6.2,6.2,0,0,0-6.191,6.191v4.015a6.191,6.191,0,0,0,12.381,0v-8.534A1.672,1.672,0,0,0,371.371,278.047Z" transform="translate(-320.744 -247.737)" fill="#ffdfcf"/>
        <path id="Path_624" data-name="Path 624" d="M373.217,278.047h-6.364a6.2,6.2,0,0,0-6.191,6.191v.183a1.672,1.672,0,0,0,1.672,1.672h6.181a6.381,6.381,0,0,0,6.373-6.374A1.672,1.672,0,0,0,373.217,278.047Z" transform="translate(-320.745 -247.737)" fill="#005e7f"/>
        <path id="Path_625" data-name="Path 625" d="M418.726,380.415H416.6v14.1h8.887a1.672,1.672,0,0,0,1.672-1.672v-4A8.441,8.441,0,0,0,418.726,380.415Z" transform="translate(-370.49 -338.775)" fill="#ff3f83"/>
        <path id="Path_626" data-name="Path 626" d="M421.116,278.047H416.6v16.4a6.2,6.2,0,0,0,6.191-6.191v-8.534A1.672,1.672,0,0,0,421.116,278.047Z" transform="translate(-370.49 -247.737)" fill="#ffcebf"/>
        <path id="Path_627" data-name="Path 627" d="M422.961,278.047H416.6v8.045h1.662a6.381,6.381,0,0,0,6.373-6.373A1.672,1.672,0,0,0,422.961,278.047Z" transform="translate(-370.49 -247.737)" fill="#002e41"/>
        <path id="Path_628" data-name="Path 628" d="M97.531,380.415H95.4v14.1h8.887v-10.7A8.424,8.424,0,0,0,97.531,380.415Z" transform="translate(-84.844 -338.775)" fill="#19cffc"/>
        <path id="Path_629" data-name="Path 629" d="M99.922,278.047H95.4v16.4h0a6.2,6.2,0,0,0,6.191-6.191v-8.534A1.672,1.672,0,0,0,99.922,278.047Z" transform="translate(-84.844 -247.737)" fill="#a44f3e"/>
        <path id="Path_630" data-name="Path 630" d="M101.767,278.047H95.4v8.045h1.662a6.381,6.381,0,0,0,6.374-6.373A1.672,1.672,0,0,0,101.767,278.047Z" transform="translate(-84.844 -247.737)" fill="#002e41"/>
      </g>
      <g id="Group_3151" data-name="Group 3151" transform="translate(1577.679 1812.453)">
        <g id="Group_3137" data-name="Group 3137" transform="translate(0 0)">
          <path id="Path_632" data-name="Path 632" d="M141.834,137.425h-1.75v-1.75a.437.437,0,0,0-.875,0v1.75h-1.75a.437.437,0,0,0,0,.875h1.75v1.75a.437.437,0,0,0,.875,0V138.3h1.75a.437.437,0,0,0,0-.875Z" transform="translate(-137.022 -135.238)" fill="#ebf3fa"/>
        </g>
      </g>
      <g id="Group_3152" data-name="Group 3152" transform="translate(1568.272 1826.62)">
        <g id="Group_3137-2" data-name="Group 3137" transform="translate(0 0)">
          <path id="Path_632-2" data-name="Path 632" d="M141.834,137.425h-1.75v-1.75a.437.437,0,0,0-.875,0v1.75h-1.75a.437.437,0,0,0,0,.875h1.75v1.75a.437.437,0,0,0,.875,0V138.3h1.75a.437.437,0,0,0,0-.875Z" transform="translate(-137.022 -135.238)" fill="#ebf3fa"/>
        </g>
      </g>
      <g id="Group_3153" data-name="Group 3153" transform="translate(1587.308 1827.173)">
        <g id="Group_3137-3" data-name="Group 3137" transform="translate(0 0)">
          <path id="Path_632-3" data-name="Path 632" d="M141.834,137.425h-1.75v-1.75a.437.437,0,0,0-.875,0v1.75h-1.75a.437.437,0,0,0,0,.875h1.75v1.75a.437.437,0,0,0,.875,0V138.3h1.75a.437.437,0,0,0,0-.875Z" transform="translate(-137.022 -135.238)" fill="#ebf3fa"/>
        </g>
      </g>
    </g>
  </g>
</svg>
