<svg xmlns="http://www.w3.org/2000/svg" width="95" height="95" viewBox="0 0 95 95">
  <g id="Group_3934" data-name="Group 3934" transform="translate(-319 -911)">
    <g id="Group_3915" data-name="Group 3915" transform="translate(319 911)">
      <circle id="pexels-photo-1310522" cx="47.5" cy="47.5" r="47.5" fill="#d6b0e1" opacity="0.5"/>
    </g>
    <g id="_001-balloons" data-name="001-balloons" transform="translate(334.714 922)">
      <g id="Group_3868" data-name="Group 3868" transform="translate(13.467 8.191)">
        <g id="Group_3857" data-name="Group 3857" transform="translate(21.169)">
          <g id="Group_3853" data-name="Group 3853" transform="translate(10.805 36.498)">
            <g id="Group_3852" data-name="Group 3852" transform="translate(0.747 4.417)">
              <path id="Path_3751" data-name="Path 3751" d="M361.026,368.043a1.086,1.086,0,0,1-1.086-1.086,3.234,3.234,0,0,0-.73-2.119,5.6,5.6,0,0,1,0-6.659,3.442,3.442,0,0,0,0-4.238,5.6,5.6,0,0,1,0-6.659,3.234,3.234,0,0,0,.73-2.119,1.086,1.086,0,0,1,2.173,0,5.354,5.354,0,0,1-1.1,3.329,3.442,3.442,0,0,0,0,4.238,5.6,5.6,0,0,1,0,6.659,3.441,3.441,0,0,0,0,4.238,5.354,5.354,0,0,1,1.1,3.329A1.086,1.086,0,0,1,361.026,368.043Z" transform="translate(-358.112 -344.078)" fill="#fdd330"/>
            </g>
            <path id="Path_3752" data-name="Path 3752" d="M358.482,320.238h-4.218a1.382,1.382,0,0,1-1.361-1.62l.96-5.487h5.02l.96,5.487A1.382,1.382,0,0,1,358.482,320.238Z" transform="translate(-352.881 -313.131)" fill="#1785f8"/>
            <path id="Path_3753" data-name="Path 3753" d="M371.148,320.241h-3.491a1.382,1.382,0,0,0,1.361-1.621l-.961-5.486h3.491l.96,5.486A1.382,1.382,0,0,1,371.148,320.241Z" transform="translate(-365.548 -313.134)" fill="#1576f7"/>
          </g>
          <path id="Path_3754" data-name="Path 3754" d="M305.765,74.984c0,10.63-6.4,20.906-14.3,20.906s-14.3-10.276-14.3-20.906,6.4-17.589,14.3-17.589,14.3,6.959,14.3,17.589Z" transform="translate(-277.173 -57.395)" fill="#31a7fb"/>
          <g id="Group_3856" data-name="Group 3856" transform="translate(0.182 18.311)">
            <g id="Group_3855" data-name="Group 3855">
              <g id="Group_3854" data-name="Group 3854">
                <path id="Path_3755" data-name="Path 3755" d="M288.828,205.1c-5.368-2.286-9.484-9.28-10.379-17a9.535,9.535,0,0,1,10.292-1.5C294.99,189.407,295.362,197.659,288.828,205.1Z" transform="translate(-278.449 -185.698)" fill="#1c96f9"/>
              </g>
            </g>
          </g>
          <path id="Path_3756" data-name="Path 3756" d="M366.686,75.042c0,10.63-6.4,20.9-14.3,20.9a9.6,9.6,0,0,1-4.155-.972c7.747-.275,13.973-10.416,13.973-20.9,0-8.291-3.894-14.349-9.353-16.612C360.536,57.728,366.686,64.622,366.686,75.042Z" transform="translate(-338.094 -57.453)" fill="#1c96f9"/>
        </g>
        <g id="Group_3867" data-name="Group 3867" transform="translate(0 15.8)">
          <g id="Group_3866" data-name="Group 3866">
            <g id="Group_3859" data-name="Group 3859" transform="translate(13.808 25.134)">
              <g id="Group_3858" data-name="Group 3858" transform="translate(0.824 5.008)">
                <path id="Path_3757" data-name="Path 3757" d="M232.449,397.933a1.086,1.086,0,0,1-1.086-1.086,5.385,5.385,0,0,1,1.1-3.348,3.472,3.472,0,0,0,0-4.274,5.627,5.627,0,0,1,0-6.695,3.262,3.262,0,0,0,.736-2.137,1.086,1.086,0,1,1,2.172,0,5.383,5.383,0,0,1-1.1,3.347,3.471,3.471,0,0,0,0,4.274,5.627,5.627,0,0,1,0,6.7,3.263,3.263,0,0,0-.736,2.137A1.086,1.086,0,0,1,232.449,397.933Z" transform="translate(-231.363 -379.307)" fill="#1576f7"/>
              </g>
              <path id="Path_3758" data-name="Path 3758" d="M231.192,351.324h-4.218a1.382,1.382,0,0,1-1.361-1.62l.96-5.487h5.02l.96,5.487A1.382,1.382,0,0,1,231.192,351.324Z" transform="translate(-225.592 -344.217)" fill="#fb3a82"/>
              <path id="Path_3759" data-name="Path 3759" d="M241.356,351.325h-3.908a1.381,1.381,0,0,0,1.361-1.621l-.959-5.486h3.907l.96,5.486A1.382,1.382,0,0,1,241.356,351.325Z" transform="translate(-235.756 -344.218)" fill="#fb1466"/>
            </g>
            <g id="Group_3862" data-name="Group 3862" transform="translate(0 0)">
              <g id="Group_3861" data-name="Group 3861">
                <g id="Group_3860" data-name="Group 3860">
                  <path id="Path_3760" data-name="Path 3760" d="M158.6,169c-4.854-2.184-8.7.083-10.769,1.9a2.566,2.566,0,0,1-3.383,0c-2.073-1.822-5.916-4.089-10.769-1.9-8.764,3.944-5.967,18.592,11.228,26.686a2.9,2.9,0,0,0,2.465,0C164.572,187.593,167.368,172.945,158.6,169Z" transform="translate(-128.845 -168.105)" fill="#fc95bb"/>
                </g>
              </g>
            </g>
            <path id="Path_3761" data-name="Path 3761" d="M145.267,171.387a27.194,27.194,0,0,1-3.072,6.354,18.488,18.488,0,0,1-6.489,6.2L136,185.6a4.263,4.263,0,0,1-.918,3.465c-8.04-7.807-8.085-17.052-1.4-20.061,4.853-2.184,8.7.083,10.77,1.906A2.552,2.552,0,0,0,145.267,171.387Z" transform="translate(-128.843 -168.102)" fill="#fc78a8"/>
            <g id="Group_3865" data-name="Group 3865" transform="translate(13.824 0.072)">
              <g id="Group_3864" data-name="Group 3864">
                <g id="Group_3863" data-name="Group 3863">
                  <path id="Path_3762" data-name="Path 3762" d="M230.413,196.119a2.891,2.891,0,0,1-2.465,0q-1.166-.55-2.243-1.135a2.878,2.878,0,0,0,.809-.244c16.472-7.754,19.732-21.521,12.272-26.132a10.022,10.022,0,0,1,2.854.825C250.406,173.377,247.609,188.025,230.413,196.119Z" transform="translate(-225.706 -168.608)" fill="#fc78a8"/>
                </g>
              </g>
            </g>
          </g>
        </g>
      </g>
      <g id="Group_3872" data-name="Group 3872" transform="translate(0 0)">
        <g id="Group_3871" data-name="Group 3871" transform="translate(10.805 36.497)">
          <g id="Group_3869" data-name="Group 3869" transform="translate(0.565 4.809)">
            <path id="Path_3763" data-name="Path 3763" d="M115.236,309.678a1.086,1.086,0,0,1-1.086-1.086,5.825,5.825,0,0,1,1.2-3.619,3.921,3.921,0,0,0,0-4.817,6.076,6.076,0,0,1,0-7.238,3.713,3.713,0,0,0,.827-2.408,1.086,1.086,0,1,1,2.172,0,5.823,5.823,0,0,1-1.2,3.619,3.921,3.921,0,0,0,0,4.817,6.077,6.077,0,0,1,0,7.238,3.714,3.714,0,0,0-.827,2.409A1.086,1.086,0,0,1,115.236,309.678Z" transform="translate(-114.15 -289.424)" fill="#fc95bb"/>
          </g>
          <path id="Path_3764" data-name="Path 3764" d="M115.792,262.843h-4.218a1.382,1.382,0,0,1-1.361-1.62l.96-5.487h5.02l.96,5.487A1.382,1.382,0,0,1,115.792,262.843Z" transform="translate(-110.191 -255.735)" fill="#f8c52d"/>
          <g id="Group_3870" data-name="Group 3870" transform="translate(2.109)">
            <path id="Path_3765" data-name="Path 3765" d="M128.462,262.839h-3.491a1.383,1.383,0,0,0,1.361-1.621l-.96-5.487h3.491l.96,5.487A1.383,1.383,0,0,1,128.462,262.839Z" transform="translate(-124.971 -255.731)" fill="#d6a826"/>
          </g>
        </g>
        <path id="Path_3766" data-name="Path 3766" d="M63.076,17.589c0,10.63-6.4,20.906-14.3,20.906s-14.3-10.276-14.3-20.906S40.885,0,48.78,0,63.076,6.959,63.076,17.589Z" transform="translate(-34.484 0)" fill="#fee265"/>
        <path id="Path_3767" data-name="Path 3767" d="M128.757,17.588c0,10.631-6.4,20.906-14.3,20.906a9.394,9.394,0,0,1-3.362-.632c7.418-.839,13.273-10.68,13.273-20.849,0-8.826-4.413-15.12-10.431-17,.172-.009.345-.011.519-.011C122.355,0,128.757,6.958,128.757,17.588Z" transform="translate(-100.164 0)" fill="#fdd330"/>
      </g>
    </g>
  </g>
</svg>
