<svg xmlns="http://www.w3.org/2000/svg" width="94" height="94" viewBox="0 0 94 94">
  <g id="Group_3936" data-name="Group 3936" transform="translate(-319 -620)">
    <g id="Group_3911" data-name="Group 3911" transform="translate(319 620)">
      <circle id="pexels-photo-1310522" cx="47" cy="47" r="47" fill="#f9ddd8" opacity="0.5"/>
    </g>
    <g id="_004-wedding-rings" data-name="004-wedding-rings" transform="translate(340.811 640.213)">
      <path id="Path_3809" data-name="Path 3809" d="M192.479,7.747h0a4.584,4.584,0,0,0-6.669-6.291,4.584,4.584,0,0,0-6.669,6.291l5.844,6.108a1.141,1.141,0,0,0,1.65,0l5.845-6.109Z" transform="translate(-160.478 0)" fill="#ff0059"/>
      <path id="Path_3810" data-name="Path 3810" d="M256.862,1.6v12.76a1.138,1.138,0,0,0,.816-.353L263.523,7.9h0a4.584,4.584,0,0,0-6.661-6.3Z" transform="translate(-231.522 -0.154)" fill="#c1126b"/>
      <path id="Path_3811" data-name="Path 3811" d="M38.214,169.147a17.765,17.765,0,1,0,1.4,6.9A17.656,17.656,0,0,0,38.214,169.147Zm-4.411,6.9a11.918,11.918,0,1,1-11.918-11.917A11.931,11.931,0,0,1,33.8,176.048Z" transform="translate(-4.161 -142.448)" fill="#ffda2d"/>
      <path id="Path_3812" data-name="Path 3812" d="M188.216,169.147a17.765,17.765,0,1,0,1.4,6.9A17.656,17.656,0,0,0,188.216,169.147Zm-4.411,6.9a11.918,11.918,0,1,1-11.918-11.917A11.931,11.931,0,0,1,183.8,176.048Z" transform="translate(-139.121 -142.448)" fill="#ffa725"/>
      <path id="Path_3813" data-name="Path 3813" d="M192.831,176.048a11.931,11.931,0,0,1-11.918,11.918v5.807a17.724,17.724,0,1,0,0-35.448v5.807a11.931,11.931,0,0,1,11.918,11.918Z" transform="translate(-163.189 -142.448)" fill="#fdbf00"/>
      <path id="Path_3814" data-name="Path 3814" d="M342.833,176.048a11.931,11.931,0,0,1-11.918,11.918v5.807a17.724,17.724,0,1,0,0-35.448v5.807a11.931,11.931,0,0,1,11.918,11.918Z" transform="translate(-298.149 -142.448)" fill="#ff8700"/>
    </g>
  </g>
</svg>
