<svg xmlns="http://www.w3.org/2000/svg" width="95" height="95" viewBox="0 0 95 95">
  <g id="Group_3900" data-name="Group 3900" transform="translate(-177 -514)">
    <g id="Group_3850" data-name="Group 3850" transform="translate(177 514)">
      <circle id="pexels-photo-1310522" cx="47.5" cy="47.5" r="47.5" fill="#8be7ff" opacity="0.5"/>
    </g>
    <g id="_003-champagne" data-name="003-champagne" transform="translate(194.042 529.75)">
      <path id="Path_3791" data-name="Path 3791" d="M30.449,15.958V0H21.593V15.958A22.413,22.413,0,0,1,17.306,29.14a22.413,22.413,0,0,0-4.269,14.044L13.845,64.2H38.2l.808-21.019A22.414,22.414,0,0,0,34.736,29.14,22.413,22.413,0,0,1,30.449,15.958Z" transform="translate(-13.02)" fill="#009245"/>
      <path id="Path_3792" data-name="Path 3792" d="M74.98,0h8.856V4.428H74.98V0Z" transform="translate(-66.407)" fill="#333"/>
      <path id="Path_3793" data-name="Path 3793" d="M42.757,185.582v8.856l7.749-7.749,7.749,7.749v-8.856l-3.321-3.321,4.641-4.641c-.121-.177-.228-.361-.354-.534a22.381,22.381,0,0,1-2.715-4.97l-5.717,5.717L44.658,171.7a22.364,22.364,0,0,1-2.868,5.382c-.126.173-.234.356-.354.534l4.641,4.641Z" transform="translate(-37.504 -147.946)" fill="#fbcc34"/>
      <ellipse id="Ellipse_39" data-name="Ellipse 39" cx="4.428" cy="4.428" rx="4.428" ry="4.428" transform="translate(8.573 29.887)" fill="#fbb03b"/>
      <path id="Path_3794" data-name="Path 3794" d="M58.98,353.937H72.263V342.868a9.392,9.392,0,0,0-13.283,0h0Z" transform="translate(-52.621 -293.056)" fill="#f2f2f2"/>
      <g id="Group_3876" data-name="Group 3876" transform="translate(30.712 21.032)">
        <path id="Path_3795" data-name="Path 3795" d="M276.087,368.6a1.107,1.107,0,0,1-1.107-1.107v-14.39a1.107,1.107,0,0,1,2.214,0V367.5A1.107,1.107,0,0,1,276.087,368.6Z" transform="translate(-269.445 -324.327)" fill="#bdccd4"/>
        <path id="Path_3796" data-name="Path 3796" d="M247.156,458.214H236.087a1.107,1.107,0,0,1,0-2.214h11.069a1.107,1.107,0,1,1,0,2.214Z" transform="translate(-234.98 -413.936)" fill="#bdccd4"/>
        <path id="Path_3797" data-name="Path 3797" d="M404.087,368.6a1.107,1.107,0,0,1-1.107-1.107v-14.39a1.107,1.107,0,0,1,2.214,0V367.5A1.107,1.107,0,0,1,404.087,368.6Z" transform="translate(-379.734 -324.327)" fill="#bdccd4"/>
        <path id="Path_3798" data-name="Path 3798" d="M375.156,458.214H364.087a1.107,1.107,0,0,1,0-2.214h11.069a1.107,1.107,0,0,1,0,2.214Z" transform="translate(-345.269 -413.936)" fill="#bdccd4"/>
        <path id="Path_3799" data-name="Path 3799" d="M234.98,152h13.283v6.642H234.98Z" transform="translate(-234.98 -152)" fill="#bdccd4"/>
      </g>
      <g id="Group_3877" data-name="Group 3877" transform="translate(30.712 27.674)">
        <path id="Path_3800" data-name="Path 3800" d="M234.98,215.5a6.642,6.642,0,0,0,13.283,0V200H234.98Z" transform="translate(-234.98 -200)" fill="#f4e09c"/>
        <path id="Path_3801" data-name="Path 3801" d="M362.98,215.5a6.642,6.642,0,1,0,13.283,0V200H362.98Z" transform="translate(-345.269 -200)" fill="#f4e09c"/>
      </g>
      <path id="Path_3802" data-name="Path 3802" d="M362.98,152h13.283v6.642H362.98Z" transform="translate(-314.557 -130.968)" fill="#bdccd4"/>
      <g id="Group_3878" data-name="Group 3878" transform="translate(32.372 30.441)">
        <path id="Path_3803" data-name="Path 3803" d="M249.194,232.428a2.214,2.214,0,1,1,2.214-2.214A2.214,2.214,0,0,1,249.194,232.428Zm-1.107-2.214a1.107,1.107,0,0,0,2.214,0,1.107,1.107,0,0,1-2.214,0Zm1.107-.553v0Z" transform="translate(-246.98 -226.893)" fill="#f2f2f2"/>
        <path id="Path_3804" data-name="Path 3804" d="M281.194,264.428a2.214,2.214,0,1,1,2.214-2.214A2.214,2.214,0,0,1,281.194,264.428Zm-1.107-2.214a1.107,1.107,0,1,0,2.214,0,1.107,1.107,0,1,1-2.214,0Zm1.107-.553v0Z" transform="translate(-274.552 -254.465)" fill="#f2f2f2"/>
        <path id="Path_3805" data-name="Path 3805" d="M257.194,296.428a2.214,2.214,0,1,1,2.214-2.214A2.214,2.214,0,0,1,257.194,296.428Zm-1.107-2.214a1.107,1.107,0,1,0,2.214,0,1.107,1.107,0,1,1-2.214,0Zm1.107-.553v0Z" transform="translate(-253.873 -282.038)" fill="#f2f2f2"/>
        <path id="Path_3806" data-name="Path 3806" d="M385.194,224.428a2.214,2.214,0,1,1,2.214-2.214A2.214,2.214,0,0,1,385.194,224.428Zm-1.107-2.214a1.107,1.107,0,1,0,2.214,0,1.107,1.107,0,1,1-2.214,0Zm1.107-.553v0Z" transform="translate(-364.162 -220)" fill="#f2f2f2"/>
        <path id="Path_3807" data-name="Path 3807" d="M409.194,256.428a2.214,2.214,0,1,1,2.214-2.214A2.214,2.214,0,0,1,409.194,256.428Zm-1.107-2.214a1.107,1.107,0,1,0,2.214,0,1.107,1.107,0,1,1-2.214,0Zm1.107-.553v0Z" transform="translate(-384.841 -247.572)" fill="#f2f2f2"/>
        <path id="Path_3808" data-name="Path 3808" d="M385.194,296.428a2.214,2.214,0,1,1,2.214-2.214A2.214,2.214,0,0,1,385.194,296.428Zm-1.107-2.214a1.107,1.107,0,1,0,2.214,0,1.107,1.107,0,1,1-2.214,0Zm1.107-.553v0Z" transform="translate(-364.162 -282.038)" fill="#f2f2f2"/>
      </g>
    </g>
    <g id="flat" transform="translate(219.793 525.812)">
      <path id="Path_662" data-name="Path 662" d="M0,0H5.5A1.168,1.168,0,0,1,6.673,1.168v1.5H0V0Z" transform="matrix(0.712, 0.702, -0.702, 0.712, 6.494, 0)" fill="#0296e5"/>
      <path id="Path_663" data-name="Path 663" d="M0,0H4.17A1.168,1.168,0,0,1,5.338,1.168v1.5H1.168A1.168,1.168,0,0,1,0,1.5V0Z" transform="matrix(0.712, 0.702, -0.702, 0.712, 7.472, 4.709)" fill="#0276b4"/>
      <path id="Path_664" data-name="Path 664" d="M0,0H6.673V2.669h-5.5A1.168,1.168,0,0,1,0,1.5Z" transform="matrix(0.712, 0.702, -0.702, 0.712, 7.5, 8.482)" fill="#0296e5"/>
      <circle id="Ellipse_13" data-name="Ellipse 13" cx="1.5" cy="1.5" r="1.5" transform="translate(16.207 4.188)" fill="#e82f3e"/>
      <ellipse id="Ellipse_14" data-name="Ellipse 14" cx="2" cy="1.5" rx="2" ry="1.5" transform="translate(31.207 22.188)" fill="#02a437"/>
      <ellipse id="Ellipse_16" data-name="Ellipse 16" cx="1" cy="1.5" rx="1" ry="1.5" transform="translate(0.207 4.188)" fill="#ea9d2d"/>
      <circle id="Ellipse_17" data-name="Ellipse 17" cx="3" cy="3" r="3" transform="translate(0.207 16.188)" fill="#fbb540"/>
      <ellipse id="Ellipse_18" data-name="Ellipse 18" cx="3" cy="1.5" rx="3" ry="1.5" transform="translate(25.207 15.188)" fill="#0296e5"/>
      <circle id="Ellipse_19" data-name="Ellipse 19" cx="2.5" cy="2.5" r="2.5" transform="translate(28.207 2.188)" fill="#e82f3e"/>
      <path id="Path_667" data-name="Path 667" d="M0,0H4V2.669H0Z" transform="matrix(0.778, 0.628, -0.628, 0.778, 33.18, 9.994)" fill="#029532"/>
      <path id="Path_668" data-name="Path 668" d="M0,0H4V2.669H0Z" transform="matrix(0.628, -0.778, 0.778, 0.628, 20.926, 11.111)" fill="#02a437"/>
    </g>
  </g>
</svg>
