<svg xmlns="http://www.w3.org/2000/svg" width="101" height="101" viewBox="0 0 101 101">
	<g id="Group_3938" data-name="Group 3938" transform="translate(-633 -670)">
		<circle id="anticipacion-celebracion-concepto-fiesta-alegre-hermosa-mujer-joven-vestido-animando-ojos-cerrados-felizmente-sonriendo-riendo-recibiendo-bonito-regal" cx="50.5" cy="50.5" r="50.5" transform="translate(633 670)" fill="#fff" />
		<g id="_001-delete-friend" data-name="001-delete-friend" transform="translate(611.134 684)">
			<g id="Group_3894" data-name="Group 3894" transform="translate(42.866 31.458)">
				<path id="Path_3817" data-name="Path 3817" d="M86.146,263.845H44.925a2.059,2.059,0,0,1-2.059-2.059v-9.894a22.669,22.669,0,0,1,45.339,0v9.894A2.059,2.059,0,0,1,86.146,263.845Z" transform="translate(-42.866 -229.223)" fill="#7dd5f4" />
			</g>
			<path id="Path_3818" data-name="Path 3818" d="M224.061,235.882a22.508,22.508,0,0,0-16.012-6.658v34.622H228.66a2.059,2.059,0,0,0,2.059-2.059v-9.894A22.509,22.509,0,0,0,224.061,235.882Z" transform="translate(-142.514 -197.766)" fill="#4793ff" />
			<path id="Path_3819" data-name="Path 3819" d="M179.5,184.994a4.554,4.554,0,0,1,4.541,4.541v9.584a4.541,4.541,0,0,1-9.081,0v-9.584A4.554,4.554,0,0,1,179.5,184.994Z" transform="translate(-113.967 -159.606)" fill="#fdd1a3" fill-rule="evenodd" />
			<path id="Path_3820" data-name="Path 3820" d="M208.048,184.994v18.665a4.554,4.554,0,0,0,4.541-4.541v-9.584A4.554,4.554,0,0,0,208.048,184.994Z" transform="translate(-142.513 -159.606)" fill="#ffbb85" fill-rule="evenodd" />
			<path id="Path_3821" data-name="Path 3821" d="M166.56,192.776a6.607,6.607,0,0,1-6.6-6.6v-9.584a6.6,6.6,0,0,1,13.2,0v9.584A6.607,6.607,0,0,1,166.56,192.776Zm0-18.665a2.485,2.485,0,0,0-2.482,2.482v9.584a2.482,2.482,0,0,0,4.964,0v-9.584A2.485,2.485,0,0,0,166.56,174.111Z" transform="translate(-101.025 -146.664)" fill="#4793ff" />
			<path id="Path_3822" data-name="Path 3822" d="M208.048,169.994v4.117a2.485,2.485,0,0,1,2.482,2.482v9.584a2.485,2.485,0,0,1-2.482,2.482v4.117a6.607,6.607,0,0,0,6.6-6.6v-9.584A6.607,6.607,0,0,0,208.048,169.994Z" transform="translate(-142.513 -146.664)" fill="#525cdd" />
			<g id="Group_3895" data-name="Group 3895" transform="translate(46.653 8.301)">
				<path id="Path_3823" data-name="Path 3823" d="M89.344,89.949A18.89,18.89,0,0,1,70.993,66.612c2.007-8.269,34.842-8.148,36.76.243A18.891,18.891,0,0,1,89.344,89.949Z" transform="translate(-70.462 -60.486)" fill="#ffe4c1" />
			</g>
			<path id="Path_3824" data-name="Path 3824" d="M226.457,66.861c-.962-4.206-9.689-6.334-18.409-6.37V89.954a18.891,18.891,0,0,0,18.409-23.093Z" transform="translate(-142.513 -52.189)" fill="#fdd1a3" />
			<path id="Path_3825" data-name="Path 3825" d="M90.875,0A18.912,18.912,0,0,0,72.236,15.857H91.713a1.029,1.029,0,0,0,.646-.228l3-2.416,1.619,2.221a1.029,1.029,0,0,0,.832.423h11.707A18.912,18.912,0,0,0,90.875,0Z" transform="translate(-25.339)" fill="#001d7e" />
			<g id="Group_3896" data-name="Group 3896" transform="translate(72.546 41.446)">
				<path id="Path_3826" data-name="Path 3826" d="M273.544,330.82a14.41,14.41,0,1,1,14.41-14.41A14.426,14.426,0,0,1,273.544,330.82Z" transform="translate(-259.134 -302)" fill="#ff405c" />
			</g>
			<path id="Path_3827" data-name="Path 3827" d="M364.134,302v28.82a14.41,14.41,0,1,0,0-28.82Z" transform="translate(-277.178 -260.554)" fill="#c1126b" />
			<path id="Path_3828" data-name="Path 3828" d="M208.048,0V15.857h.838a1.03,1.03,0,0,0,.646-.228l3-2.416,1.619,2.221a1.029,1.029,0,0,0,.832.423h11.707A18.912,18.912,0,0,0,208.048,0Z" transform="translate(-142.513)" fill="#061367" />
			<g id="Group_3897" data-name="Group 3897" transform="translate(80.781 53.797)">
				<path id="Path_3829" data-name="Path 3829" d="M329.428,396.117h-8.234a2.059,2.059,0,1,1,0-4.117h8.234a2.059,2.059,0,1,1,0,4.117Z" transform="translate(-319.135 -392)" fill="#fff4f4" />
			</g>
			<path id="Path_3830" data-name="Path 3830" d="M367.97,392h-4.162v4.117h4.162a2.059,2.059,0,1,0,0-4.117Z" transform="translate(-276.897 -338.203)" fill="#f6efea" />
		</g>
	</g>
</svg>
